<?xml version="1.0" standalone="no"?>
<!DOCTYPE svg PUBLIC "-//W3C//DTD SVG 20010904//EN"
 "http://www.w3.org/TR/2001/REC-SVG-20010904/DTD/svg10.dtd">
<svg version="1.0" xmlns="http://www.w3.org/2000/svg"
 width="796.000000pt" height="1125.000000pt" viewBox="0 0 796.000000 1125.000000"
 preserveAspectRatio="xMidYMid meet">

<g transform="translate(0.000000,1125.000000) scale(0.100000,-0.100000)"
fill="#000000ff" stroke="none">
<path d="M2550 9947 c-29 -18 -49 -22 -125 -23 -93 0 -180 -18 -170 -34 3 -6
-1 -7 -10 -4 -9 4 -26 2 -38 -3 -123 -56 -137 -64 -137 -82 0 -11 -4 -23 -10
-26 -5 -3 -10 1 -10 9 0 23 -17 20 -72 -14 l-48 -30 -538 0 -537 0 -127 -117
-128 -117 0 -507 0 -507 -44 -83 c-67 -125 -133 -339 -105 -339 8 0 7 -6 -4
-17 -10 -12 -19 -54 -26 -115 -14 -127 -15 -3972 -1 -4173 16 -230 32 -355 46
-370 9 -8 10 -16 4 -20 -11 -7 -7 -30 26 -175 28 -120 72 -260 83 -260 4 0 7
-8 8 -17 4 -44 33 -163 53 -213 110 -280 551 -684 1199 -1099 270 -173 572
-351 596 -351 8 0 15 -4 15 -8 0 -12 249 -144 520 -275 217 -106 372 -173 559
-243 57 -22 84 -39 125 -81 30 -32 67 -59 90 -67 37 -13 41 -18 57 -75 21 -78
50 -111 98 -111 46 0 81 -10 81 -22 0 -6 -13 -7 -31 -3 -22 5 -29 4 -25 -4 4
-6 21 -11 37 -11 35 0 70 -34 104 -100 44 -87 77 -107 164 -101 29 2 42 -5 90
-52 86 -84 107 -92 231 -90 60 1 127 9 155 17 45 14 58 14 129 0 106 -22 167
-15 257 28 153 73 488 346 545 443 23 40 41 135 61 316 l6 57 46 6 c81 11 163
69 339 241 186 181 632 655 773 820 51 61 152 178 224 260 230 265 279 350
274 484 l-3 76 51 75 c54 81 97 160 120 224 11 30 14 86 14 216 -1 96 -3 184
-5 195 -2 11 -7 55 -10 98 -10 114 -38 195 -81 235 l-35 34 19 31 c31 51 38
92 81 449 46 377 46 404 -10 491 l-29 46 21 58 c19 51 22 84 26 277 3 175 1
220 -10 227 -8 6 -9 9 -1 9 8 0 10 25 7 88 -6 122 -29 206 -68 247 -18 18 -44
55 -58 82 -26 47 -27 54 -31 268 -5 220 -21 347 -53 423 -12 29 -14 237 -14
1349 l0 1315 -29 28 c-18 19 -44 32 -70 36 l-41 7 0 116 0 116 -128 117 -127
117 -1747 1 c-1577 0 -1748 -2 -1748 -16 0 -8 -5 -12 -10 -9 -6 4 -8 10 -5 15
3 5 -12 18 -33 29 -30 15 -42 17 -51 8 -10 -9 -11 -8 -6 6 8 19 -14 24 -31 7
-6 -6 -15 -6 -24 0 -10 7 -11 10 -2 10 35 0 3 21 -70 46 -68 22 -85 25 -101
14 -17 -10 -19 -10 -14 4 7 17 10 16 -168 60 -108 26 -184 41 -255 50 -36 5
-52 1 -80 -17z m84 -104 c47 -95 84 -217 107 -358 11 -66 24 -130 29 -143 13
-30 106 -73 318 -147 205 -71 196 -74 268 85 28 63 50 116 49 118 -1 1 -33
-29 -71 -69 -68 -70 -69 -71 -112 -65 -60 8 -192 65 -223 96 -16 15 -29 43
-34 68 -5 29 -12 42 -23 42 -15 1 -15 2 -1 10 13 7 14 19 8 62 -4 29 -8 74 -8
100 -1 55 20 77 102 104 l52 17 -30 13 c-35 14 -178 54 -314 86 -52 13 -96 29
-99 36 -3 9 3 11 20 8 318 -71 538 -131 538 -146 0 -4 -17 -12 -38 -18 -21 -6
-49 -24 -64 -39 -54 -59 -79 -213 -45 -279 37 -71 117 -109 179 -83 44 18 121
81 206 168 l72 74 0 -32 c0 -18 -8 -45 -18 -59 -29 -43 -63 -142 -49 -142 7
-1 5 -6 -5 -14 -18 -13 -108 -191 -108 -213 0 -7 -4 -13 -10 -13 -5 0 -10 -8
-10 -17 0 -10 -12 -26 -25 -36 -23 -17 -26 -16 -72 2 -420 166 -497 200 -506
225 -4 9 -14 69 -22 133 -27 194 -85 421 -118 461 -8 10 -7 16 4 23 8 5 15 9
16 9 2 0 18 -30 37 -67z m-172 17 c-45 -19 -91 -62 -114 -108 -21 -43 -23 -61
-24 -217 -1 -165 7 -299 20 -312 10 -10 45 28 39 43 -9 24 13 15 27 -10 17
-32 6 -64 -15 -46 -9 7 -15 8 -15 2 0 -5 -9 -8 -20 -5 -16 4 -20 0 -20 -21 0
-15 7 -29 15 -32 8 -4 15 -10 15 -16 0 -5 -4 -6 -10 -3 -13 8 -12 -21 4 -118
15 -95 39 -123 142 -172 l72 -34 15 -73 c9 -40 25 -129 37 -198 31 -177 69
-338 85 -354 8 -7 12 -16 9 -18 -2 -3 5 -13 15 -22 25 -23 87 -31 136 -17 21
6 40 9 42 7 2 -1 -60 -88 -137 -192 -77 -104 -189 -262 -250 -350 -61 -89
-127 -180 -148 -203 l-37 -42 -228 7 -228 7 -34 41 c-116 142 -355 610 -386
757 -10 46 -9 53 31 139 29 63 39 97 35 112 -4 13 -36 101 -71 196 -67 180
-87 246 -109 366 -12 66 -13 68 -14 26 -2 -94 29 -246 84 -406 58 -169 63
-199 42 -229 -12 -16 -14 -13 -20 33 -3 27 -25 99 -47 159 -113 292 -112 290
-108 386 l4 89 -22 -44 c-29 -55 -89 -235 -104 -312 -7 -32 -13 -131 -13 -220
l-2 -161 51 -105 c47 -97 191 -300 214 -300 4 0 11 -7 14 -15 5 -14 1 -13 -27
2 -17 10 -34 21 -37 24 -3 3 -26 20 -52 37 -25 18 -58 47 -72 64 -14 18 -26
30 -26 27 0 -22 55 -138 78 -162 30 -32 191 -164 235 -192 58 -37 15 -24 -92
28 -61 30 -111 53 -111 51 0 -3 14 -30 32 -62 60 -108 137 -217 187 -267 28
-27 51 -52 51 -55 0 -4 -14 -5 -31 -2 -80 12 -315 373 -394 607 -15 44 -30 87
-33 95 -3 8 -6 24 -7 35 -25 241 -27 299 -16 423 18 213 50 341 130 519 34 75
105 183 121 183 3 0 3 -47 2 -104 -3 -88 1 -122 23 -212 36 -144 78 -269 131
-391 24 -56 44 -113 44 -127 0 -14 -17 -55 -37 -92 l-37 -67 57 -53 c31 -29
85 -69 119 -88 59 -33 236 -106 256 -106 10 0 17 59 28 215 6 83 3 103 -35
255 -23 91 -46 173 -51 182 -6 10 -10 28 -10 40 0 13 -9 66 -20 118 -43 201
-36 463 16 620 66 200 240 373 437 435 49 15 207 20 169 5z m818 -104 c0 -3
-4 -8 -10 -11 -5 -3 -10 -1 -10 4 0 6 5 11 10 11 6 0 10 -2 10 -4z m-35 -16
c-3 -5 -11 -10 -16 -10 -6 0 -7 5 -4 10 3 6 11 10 16 10 6 0 7 -4 4 -10z m697
-22 c-7 -7 -12 -16 -12 -20 0 -4 570 -8 1268 -8 697 0 1358 0 1469 0 l203 0
110 -102 110 -102 0 -112 c0 -112 0 -113 -30 -142 -30 -30 -30 -32 -30 -140
l0 -110 -27 -5 c-33 -6 -43 -1 -43 21 0 10 -7 28 -16 40 -12 18 -15 54 -15
199 l1 177 -62 63 -62 63 -83 0 c-59 0 -83 -4 -84 -12 0 -10 -2 -10 -6 0 -4 9
-267 12 -1269 12 l-1264 0 -1 -32 c-1 -22 -3 -26 -6 -13 -11 44 -14 45 -267
45 l-241 0 -18 58 c-10 31 -26 65 -34 75 -15 16 -7 17 163 19 98 0 186 1 195
0 9 -1 25 8 34 18 10 11 21 20 24 20 3 0 0 -5 -7 -12z m-1373 -143 c7 -71 17
-133 23 -136 6 -4 6 -9 1 -12 -9 -6 5 -139 22 -216 10 -47 20 -55 415 -306 36
-23 98 -61 137 -85 83 -51 93 -69 93 -171 0 -64 5 -79 91 -271 155 -347 247
-553 275 -619 55 -130 124 -314 124 -332 0 -10 4 -16 9 -13 5 3 7 14 4 25 -3
13 2 20 19 24 23 7 78 -12 78 -25 0 -12 -28 -10 -35 2 -3 6 -11 10 -17 10 -6
0 -4 -10 5 -22 8 -13 21 -22 29 -20 7 1 2 -7 -11 -18 -14 -12 -35 -20 -50 -18
-24 3 -26 0 -33 -52 -4 -30 -16 -90 -26 -132 -16 -66 -17 -81 -6 -95 7 -10 14
-21 14 -25 0 -13 -28 -9 -33 5 -2 6 -10 -12 -17 -40 -8 -29 -17 -53 -22 -53
-4 0 -19 22 -33 49 l-24 49 24 97 c25 97 33 224 19 294 -7 31 -7 32 -50 25
-29 -4 -44 -3 -44 5 0 6 18 14 39 17 l40 6 -26 57 c-14 31 -105 243 -203 471
-243 569 -225 535 -332 615 -37 27 -53 21 -23 -9 9 -9 11 -17 5 -21 -5 -3 -10
-35 -10 -70 0 -86 -17 -155 -60 -239 -35 -70 -70 -104 -56 -55 37 135 44 314
16 436 -11 48 -17 56 -72 95 -34 24 -65 43 -70 43 -5 0 -12 5 -16 11 -4 5 -41
34 -83 62 -116 80 -159 123 -159 160 0 17 -6 33 -12 36 -10 5 -10 7 0 12 10 5
13 56 12 232 -1 336 -1 367 8 357 5 -6 14 -68 21 -140z m782 130 c24 -9 52
-14 62 -11 13 3 17 0 13 -10 -4 -9 3 -18 19 -24 14 -5 25 -12 25 -16 0 -3 -36
-46 -81 -95 -82 -90 -165 -159 -191 -159 -15 0 -38 39 -38 64 0 8 -7 16 -15
20 -8 3 -15 10 -15 15 0 6 6 8 14 5 9 -4 24 16 45 62 30 65 98 164 112 164 3
0 26 -7 50 -15z m-1517 -24 c-5 -4 -53 -38 -106 -74 l-98 -67 -341 0 -340 0
-65 -57 -64 -58 0 -356 0 -357 -22 -14 c-13 -9 -49 -41 -80 -72 l-58 -56 0
458 0 458 107 100 107 99 85 5 c135 8 886 0 875 -9z m686 -61 c0 -5 -4 -10
-10 -10 -5 0 -10 5 -10 10 0 6 5 10 10 10 6 0 10 -4 10 -10z m80 -10 c0 -11
-4 -20 -10 -20 -5 0 -10 9 -10 20 0 11 5 20 10 20 6 0 10 -9 10 -20z m1250
-101 c0 -6 -4 -7 -10 -4 -5 3 -10 11 -10 16 0 6 5 7 10 4 6 -3 10 -11 10 -16z
m2790 -9 c0 -5 -9 -10 -20 -10 -11 0 -20 5 -20 10 0 6 9 10 20 10 11 0 20 -4
20 -10z m-5600 -35 c0 -8 -9 -15 -20 -15 -11 0 -20 7 -20 15 0 8 9 15 20 15
11 0 20 -7 20 -15z m4358 -2 c2 -8 -5 -13 -17 -13 -21 0 -35 13 -24 24 10 10
36 3 41 -11z m1142 13 c0 -3 -4 -8 -10 -11 -5 -3 -10 -1 -10 4 0 6 5 11 10 11
6 0 10 -2 10 -4z m-2699 -26 c28 -15 25 -61 -6 -89 l-26 -22 -29 21 c-64 46
-9 127 61 90z m-1491 -10 c0 -5 -5 -10 -11 -10 -5 0 -7 5 -4 10 3 6 8 10 11
10 2 0 4 -4 4 -10z m1217 -47 c11 -21 30 -57 43 -81 l23 -44 -32 -111 c-74
-264 -116 -516 -110 -662 2 -46 1 -81 -3 -77 -17 17 -40 135 -45 229 -7 120
12 244 63 431 19 69 32 127 30 129 -7 7 -84 -199 -108 -289 -18 -68 -22 -110
-23 -233 0 -172 7 -203 101 -434 30 -73 53 -135 51 -137 -7 -7 -122 262 -157
366 -23 69 -33 121 -37 190 -4 59 -11 100 -20 108 -18 18 -17 36 2 28 20 -7
19 4 -2 20 -17 12 -17 13 -1 14 18 0 23 12 33 83 l6 48 -23 -15 c-42 -27 -98
-30 -168 -6 -144 47 -469 222 -470 253 0 4 21 -3 48 -16 26 -13 90 -41 142
-61 52 -21 103 -42 112 -47 66 -34 219 -91 246 -91 58 0 78 24 157 186 41 84
75 160 75 169 0 9 4 18 9 22 5 3 12 19 16 35 9 40 19 38 42 -7z m2417 11 c26
-25 20 -69 -11 -89 -30 -20 -45 -14 -77 28 -18 24 -18 27 -2 51 19 30 65 35
90 10z m-4888 -15 c3 -6 2 -15 -2 -19 -12 -12 -38 5 -30 19 9 14 23 14 32 0z
m240 -14 c15 -23 15 -27 0 -50 -11 -17 -26 -25 -46 -25 -20 0 -35 8 -46 25
-15 23 -15 27 0 50 11 17 26 25 46 25 20 0 35 -8 46 -25z m1062 4 c2 -5 15 -9
28 -9 13 0 24 -4 24 -10 0 -5 -14 -10 -30 -10 -18 0 -33 -6 -36 -15 -9 -21
-27 -19 -22 3 3 10 -1 23 -9 30 -22 21 -15 35 15 27 15 -3 29 -11 30 -16z
m4357 0 c5 -5 17 -9 28 -9 10 0 15 -4 12 -10 -3 -5 -17 -10 -30 -10 -12 0 -26
-8 -30 -17 -5 -14 -10 -9 -21 22 -7 22 -14 41 -14 43 0 6 45 -10 55 -19z
m-2459 -14 c4 -8 12 -15 20 -15 8 0 14 -5 14 -11 0 -6 -7 -9 -15 -6 -8 4 -17
2 -20 -3 -8 -14 -39 -12 -53 2 -16 16 3 48 29 48 11 0 22 -7 25 -15z m99 -25
c-3 -5 -10 -10 -16 -10 -5 0 -9 5 -9 10 0 6 7 10 16 10 8 0 12 -4 9 -10z m474
-8 c12 -22 -3 -42 -31 -42 -24 0 -34 26 -18 45 17 20 37 19 49 -3z m1651 -3
c0 -6 -4 -7 -10 -4 -5 3 -10 11 -10 16 0 6 5 7 10 4 6 -3 10 -11 10 -16z
m-5437 -4 c-1 -6 -9 -12 -18 -13 -22 -5 -47 6 -40 17 7 13 61 9 58 -4z m1372
4 c12 -19 -5 -23 -22 -6 -16 16 -16 17 -1 17 9 0 20 -5 23 -11z m2976 -5 c0
-5 -12 -10 -26 -12 -18 -2 -25 1 -25 13 0 11 7 15 25 12 14 -2 26 -7 26 -13z
m1374 5 c11 -17 -1 -21 -15 -4 -8 9 -8 15 -2 15 6 0 14 -5 17 -11z m-2135 -14
c0 -8 -7 -15 -15 -15 -8 0 -15 7 -15 15 0 8 7 15 15 15 8 0 15 -7 15 -15z
m1701 -24 c35 -36 37 -61 5 -97 -18 -21 -32 -28 -61 -28 -29 0 -43 7 -61 28
-13 15 -24 36 -24 47 0 30 53 79 85 79 16 0 38 -12 56 -29z m-1067 -12 c15
-12 26 -30 26 -44 0 -27 -42 -65 -72 -65 -10 0 -30 11 -44 25 -29 29 -26 58 8
88 27 22 49 22 82 -4z m-3504 -9 c0 -11 -4 -20 -10 -20 -5 0 -10 9 -10 20 0
11 5 20 10 20 6 0 10 -9 10 -20z m4358 -4 c3 -12 -1 -17 -10 -14 -7 3 -15 13
-16 22 -3 12 1 17 10 14 7 -3 15 -13 16 -22z m-3638 -3 c0 -9 -17 -13 -51 -13
-41 0 -49 3 -41 13 14 17 92 16 92 0z m2000 -3 c0 -11 -7 -20 -15 -20 -8 0
-15 9 -15 20 0 11 7 20 15 20 8 0 15 -9 15 -20z m-687 -17 c66 -25 68 -29 53
-96 -13 -57 -11 -68 12 -45 9 9 12 9 12 1 0 -12 -19 -28 -34 -28 -4 0 -23 -47
-41 -105 -18 -58 -36 -114 -40 -125 -14 -37 67 87 91 140 27 59 48 82 59 65
11 -18 85 -270 122 -418 l36 -144 28 4 c32 5 34 1 15 -24 -10 -13 -15 -15 -24
-6 -15 15 -15 5 3 -62 8 -30 15 -77 15 -105 -1 -100 -57 -257 -117 -321 -19
-21 -31 -25 -70 -22 -41 3 -50 7 -70 37 -34 50 -28 60 10 16 29 -33 37 -37 61
-31 16 4 42 20 58 37 28 27 30 34 26 82 -3 29 -12 68 -20 87 l-16 35 -25 -55
c-14 -30 -26 -52 -26 -49 -2 11 32 104 41 116 7 8 1 40 -17 94 l-27 81 -52
-51 c-28 -28 -55 -51 -59 -51 -5 0 6 20 23 45 30 43 60 105 60 123 0 4 -12 13
-27 19 -28 11 -28 11 -5 18 12 4 22 11 22 16 0 9 -80 262 -84 266 -2 2 -27
-12 -56 -32 -28 -19 -56 -35 -60 -35 -4 0 1 23 12 52 11 29 20 65 20 80 1 15
5 28 10 28 4 0 8 5 8 11 0 6 -7 8 -16 5 -8 -3 -13 -2 -10 3 3 5 -1 11 -9 15
-25 9 -17 27 9 20 32 -8 39 7 60 121 9 50 19 102 22 116 5 29 -8 37 -93 59
-28 7 -43 16 -43 27 0 13 9 15 55 9 30 -3 74 -14 98 -23z m2937 -15 c0 -11 -5
-18 -12 -16 -6 2 -21 -6 -34 -19 -30 -30 -42 -29 -56 3 -14 30 0 44 45 44 18
0 27 5 27 16 0 14 3 14 15 4 8 -7 15 -21 15 -32z m106 33 c-4 -5 -26 -9 -51
-9 -59 0 -50 14 10 16 26 1 44 -2 41 -7z m-2666 -16 c17 -20 -3 -45 -37 -45
-25 0 -39 20 -29 45 3 8 16 15 29 15 14 0 30 -7 37 -15z m2327 -7 c-3 -8 -6
-5 -6 6 -1 11 2 17 5 13 3 -3 4 -12 1 -19z m-5206 -21 c-10 -9 -11 -8 -5 6 3
10 9 15 12 12 3 -3 0 -11 -7 -18z m1149 9 c0 -23 -30 -86 -40 -86 -12 0 -13 6
-1 28 6 9 12 29 16 45 6 28 25 38 25 13z m40 4 c0 -5 -4 -10 -10 -10 -5 0 -10
5 -10 10 0 6 5 10 10 10 6 0 10 -4 10 -10z m3198 -48 c-5 -24 -35 -39 -55 -26
-27 17 -29 54 -4 61 12 3 21 10 21 16 0 5 9 -1 20 -13 12 -13 19 -30 18 -38z
m1103 11 c-9 -16 -10 -16 -11 -1 0 9 3 25 7 35 7 16 8 17 11 1 2 -10 -1 -25
-7 -35z m-4171 7 c0 -5 -2 -10 -4 -10 -3 0 -8 5 -11 10 -3 6 -1 10 4 10 6 0
11 -4 11 -10z m-1573 -6 c-3 -3 -12 -4 -19 -1 -8 3 -5 6 6 6 11 1 17 -2 13 -5z
m4350 0 c-3 -3 -12 -4 -19 -1 -8 3 -5 6 6 6 11 1 17 -2 13 -5z m-4399 -26 c19
-19 14 -46 -8 -53 -22 -7 -50 9 -50 29 0 15 20 36 35 36 6 0 16 -5 23 -12z
m762 2 c0 -5 -4 -10 -10 -10 -5 0 -10 5 -10 10 0 6 5 10 10 10 6 0 10 -4 10
-10z m4350 0 c0 -5 -5 -10 -11 -10 -5 0 -7 5 -4 10 3 6 8 10 11 10 2 0 4 -4 4
-10z m670 -8 c0 -13 -12 -22 -22 -16 -10 6 -1 24 13 24 5 0 9 -4 9 -8z m-4110
-12 c0 -5 -2 -10 -4 -10 -3 0 -8 5 -11 10 -3 6 -1 10 4 10 6 0 11 -4 11 -10z
m2005 -21 c10 -15 -1 -23 -20 -15 -9 3 -13 10 -10 16 8 13 22 13 30 -1z m1802
5 c-3 -3 -12 -4 -19 -1 -8 3 -5 6 6 6 11 1 17 -2 13 -5z m393 -14 c-8 -5 -18
-6 -24 -3 -5 4 -1 10 10 13 24 9 34 2 14 -10z m-5716 -37 c-1 -18 2 -33 7 -33
5 0 9 -4 9 -10 0 -16 -67 -12 -84 6 -19 18 -20 28 -5 55 8 15 19 19 42 17 29
-3 32 -6 31 -35z m3026 10 c224 -44 414 -148 552 -301 67 -75 88 -124 88 -206
0 -91 -34 -189 -120 -346 -37 -69 -71 -139 -74 -155 -4 -17 1 -64 10 -105 21
-96 21 -102 9 -107 -6 -2 -24 36 -39 84 -16 49 -34 91 -40 95 -8 5 -7 11 2 20
6 6 12 19 12 28 0 8 21 62 45 119 25 57 45 105 45 107 0 2 -11 4 -25 4 -16 0
-25 6 -25 16 0 13 7 15 34 10 l33 -6 28 82 c39 116 38 186 -3 269 -17 35 -49
82 -71 103 -37 36 -43 38 -66 28 -38 -17 -55 -14 -22 4 23 13 26 18 16 30 -17
20 -209 115 -220 108 -5 -3 -9 -1 -9 4 0 9 -165 66 -267 92 -24 6 -43 12 -43
15 0 2 -3 11 -7 20 -7 19 7 18 157 -12z m1710 2 c15 -18 5 -35 -21 -35 -12 0
-19 7 -19 18 0 33 20 42 40 17z m-846 -28 c26 -34 34 -53 17 -43 -5 3 -14 -1
-21 -9 -15 -18 -61 -20 -78 -3 -17 17 -15 48 5 70 24 27 49 22 77 -15z m1596
23 c0 -5 -4 -10 -10 -10 -5 0 -10 5 -10 10 0 6 5 10 10 10 6 0 10 -4 10 -10z
m-460 -30 c22 -22 27 -69 8 -88 -17 -17 -84 -15 -102 4 -24 23 -19 60 10 83
33 26 58 27 84 1z m-5216 -16 c25 -9 19 -22 -9 -20 -14 0 -25 7 -25 14 0 13
10 15 34 6z m4361 -8 c17 -12 16 -13 -13 -12 -32 1 -38 6 -25 19 9 10 17 9 38
-7z m195 6 c0 -13 -12 -22 -22 -16 -10 6 -1 24 13 24 5 0 9 -4 9 -8z m960 -7
c19 -23 -15 -59 -41 -44 -19 10 -25 39 -12 52 11 12 40 7 53 -8z m-2784 -20
c9 -8 11 -15 6 -15 -5 0 -15 7 -22 15 -7 8 -9 15 -6 15 4 0 14 -7 22 -15z
m3155 5 c22 -12 26 -45 6 -53 -16 -6 -87 15 -87 25 0 8 41 38 53 38 5 0 17 -5
28 -10z m-2191 -30 c159 -42 206 -67 286 -153 86 -93 154 -189 154 -217 0 -42
-121 -126 -172 -118 -32 4 -37 38 -6 38 30 0 95 44 103 70 9 27 -28 89 -111
187 -81 95 -120 123 -215 152 -86 26 -148 51 -155 63 -7 11 -15 12 116 -22z
m680 5 c15 -18 5 -35 -21 -35 -12 0 -19 7 -19 18 0 33 20 42 40 17z m298 -17
c3 -14 -3 -18 -27 -18 -29 0 -41 17 -24 34 13 13 48 1 51 -16z m-2648 2 c0 -5
-4 -10 -10 -10 -5 0 -10 5 -10 10 0 6 5 10 10 10 6 0 10 -4 10 -10z m1215 -39
c44 -17 113 -50 153 -74 41 -23 88 -50 105 -59 18 -10 28 -18 23 -18 -4 0 8
-19 29 -41 62 -69 79 -119 71 -213 -3 -45 -8 -92 -11 -106 -3 -14 -14 -70 -25
-125 -10 -55 -24 -122 -30 -150 -8 -35 -8 -51 -1 -53 15 -5 14 -23 0 -19 -7 1
-26 -63 -49 -163 -21 -91 -46 -185 -55 -210 -9 -25 -18 -50 -19 -56 -4 -22
-97 -170 -161 -256 -36 -49 -61 -88 -54 -88 6 0 9 -6 6 -12 -2 -7 -9 -12 -15
-11 -16 4 -35 -35 -29 -59 4 -13 -5 -32 -27 -56 -91 -104 -94 -122 -35 -211
l41 -62 -48 -57 c-153 -181 -180 -201 -324 -232 -30 -7 -63 -17 -72 -22 -36
-18 -18 18 28 56 71 60 122 136 221 336 75 150 109 206 180 296 87 109 154
200 162 218 2 6 -12 -3 -31 -20 -19 -16 -75 -63 -124 -104 -144 -121 -184
-152 -184 -141 0 29 30 68 140 181 187 193 330 369 330 407 0 8 -14 13 -35 13
-29 0 -39 -6 -53 -30 -17 -29 -36 -38 -46 -22 -3 5 11 39 30 75 32 60 37 66
55 56 19 -10 20 -12 4 -36 -16 -24 -16 -25 4 -18 12 4 21 2 21 -4 0 -6 8 -11
19 -11 23 0 48 49 73 144 21 82 22 103 6 110 -10 3 -9 8 4 18 13 11 18 43 26
153 5 77 8 183 8 235 -2 131 -22 164 -147 233 -53 30 -157 72 -214 86 -42 11
-42 11 -82 153 -6 21 10 17 132 -31z m2985 19 c0 -5 -5 -10 -11 -10 -5 0 -7 5
-4 10 3 6 8 10 11 10 2 0 4 -4 4 -10z m-4700 -21 c0 -6 -4 -7 -10 -4 -5 3 -10
11 -10 16 0 6 5 7 10 4 6 -3 10 -11 10 -16z m-1520 -29 c38 -38 12 -100 -43
-100 -22 0 -67 43 -67 65 0 23 37 55 65 55 14 0 34 -9 45 -20z m5818 -27 c3
-42 2 -43 -27 -43 -29 0 -31 2 -31 38 0 45 6 54 35 50 16 -2 21 -12 23 -45z
m-3198 3 c0 -3 -4 -8 -10 -11 -5 -3 -10 -1 -10 4 0 6 5 11 10 11 6 0 10 -2 10
-4z m3540 -6 c0 -5 -4 -10 -10 -10 -5 0 -10 5 -10 10 0 6 5 10 10 10 6 0 10
-4 10 -10z m-4320 -81 c0 -5 -4 -9 -10 -9 -5 0 -10 7 -10 16 0 8 5 12 10 9 6
-3 10 -10 10 -16z m4350 5 c0 -8 -4 -12 -10 -9 -5 3 -10 10 -10 16 0 5 5 9 10
9 6 0 10 -7 10 -16z m-915 0 c28 -11 38 -53 20 -81 -23 -34 -83 -29 -104 8
-13 24 -13 29 2 53 17 26 47 33 82 20z m609 0 c13 -5 16 -26 16 -129 0 -68 -4
-126 -9 -130 -6 -3 -28 0 -50 7 l-41 13 0 112 0 113 24 0 c14 0 28 5 31 10 7
12 8 12 29 4z m-2603 -71 c189 -123 184 -117 195 -204 l7 -54 -64 59 c-38 34
-97 74 -145 97 l-81 39 -16 60 c-10 33 -17 62 -17 65 0 13 24 0 121 -62z
m2727 61 c21 -6 22 -11 22 -119 0 -119 -2 -125 -51 -125 -18 0 -19 8 -19 125
0 132 0 131 48 119z m-388 -48 c0 -25 -26 -39 -49 -26 -25 13 -27 36 -4 49 21
11 53 -3 53 -23z m-5544 2 c-3 -13 -6 -30 -6 -40 0 -9 -35 -39 -83 -71 -199
-133 -322 -333 -382 -621 -19 -88 -19 -85 4 -79 11 3 31 22 45 42 55 79 150
102 236 59 89 -45 130 -148 130 -326 0 -61 4 -101 9 -97 5 3 12 1 16 -5 3 -5
-3 -10 -14 -10 -16 0 -21 -6 -21 -26 0 -71 -58 -301 -130 -514 -44 -132 -90
-290 -104 -360 -27 -135 -48 -337 -37 -358 4 -7 19 26 35 75 43 135 122 329
172 423 48 92 49 89 11 -40 -34 -115 -94 -379 -107 -465 -16 -117 -6 -430 13
-385 3 8 13 57 21 107 32 190 103 360 231 558 49 76 213 261 222 251 3 -2 -17
-37 -44 -76 -96 -142 -158 -284 -178 -405 l-7 -40 26 42 c13 24 50 75 80 115
65 85 196 226 171 184 -171 -284 -220 -402 -271 -643 -23 -108 -28 -159 -32
-333 l-4 -206 -111 -22 c-62 -13 -125 -31 -142 -40 -35 -20 -68 -84 -115 -225
-18 -53 -34 -96 -36 -94 -6 6 -24 464 -35 897 -15 621 5 1094 50 1179 5 9 21
70 36 136 22 97 28 146 28 255 1 140 -8 184 -47 223 -41 40 -117 11 -157 -61
l-20 -37 5 130 c7 201 55 402 142 593 53 116 164 219 322 298 80 40 86 41 78
12z m4314 -27 c22 -43 -1 -81 -49 -81 -34 0 -51 17 -51 50 0 35 17 50 57 50
22 0 36 -6 43 -19z m682 -3 c24 -20 28 -44 12 -67 -20 -29 -68 -28 -88 1 -20
29 -20 34 4 58 23 23 49 26 72 8z m166 -65 c-3 -32 -35 -44 -45 -17 -4 11 1
22 12 30 28 21 37 17 33 -13z m313 12 c0 -6 -10 -12 -23 -13 -19 -4 -20 -2 -9
12 15 17 33 18 32 1z m-711 -34 c14 -26 3 -50 -26 -57 -42 -11 -72 34 -42 64
18 18 56 14 68 -7z m-1600 -38 c0 -5 -5 -15 -10 -23 -8 -12 -10 -11 -10 8 0
12 5 22 10 22 6 0 10 -3 10 -7z m-2639 -16 c-1 -12 -15 -9 -19 4 -3 6 1 10 8
8 6 -3 11 -8 11 -12z m4357 2 c-2 -6 -8 -10 -13 -10 -5 0 -11 4 -13 10 -2 6 4
11 13 11 9 0 15 -5 13 -11z m462 -4 c17 -20 4 -35 -31 -35 -21 0 -29 5 -29 18
0 10 3 22 7 25 11 12 40 8 53 -8z m-1232 -159 c5 -145 -2 -234 -21 -260 -10
-13 -12 4 -12 86 0 57 -8 142 -18 190 l-17 86 23 26 c13 15 26 21 31 16 5 -5
11 -70 14 -144z m117 97 c27 -13 38 -26 47 -56 15 -49 55 -83 210 -177 187
-113 300 -195 458 -334 41 -36 81 -66 88 -66 6 0 12 -5 12 -12 0 -6 44 -57 98
-113 53 -56 122 -128 152 -161 34 -38 82 -75 125 -99 82 -45 217 -136 211
-142 -2 -2 -31 3 -64 11 -90 24 -95 19 -17 -18 67 -32 125 -82 138 -118 7 -19
-8 -25 -18 -8 -9 14 -99 59 -154 77 -25 8 -97 17 -160 20 l-114 6 36 18 c20
11 39 24 42 29 15 24 -206 275 -355 405 -119 104 -234 180 -390 260 -112 57
-127 62 -136 47 -9 -14 7 -31 99 -104 61 -48 115 -84 120 -81 6 4 8 0 5 -9 -4
-10 10 -31 39 -59 24 -24 59 -62 76 -84 31 -39 30 -38 -25 11 -122 111 -370
279 -395 270 -7 -3 -13 1 -13 8 0 17 -24 27 -44 20 -8 -3 -19 3 -25 15 -7 13
-32 27 -66 36 -46 14 -54 19 -46 33 5 9 12 50 16 90 4 39 9 72 11 72 6 0 318
-171 332 -182 8 -7 17 -6 29 3 15 12 16 12 10 -3 -4 -13 10 -27 59 -58 36 -23
67 -40 69 -38 1 2 7 13 13 24 10 19 7 25 -26 46 -51 34 -227 134 -352 201 -58
31 -112 62 -121 69 -12 9 -18 35 -21 91 -3 42 -1 77 3 77 5 0 24 -8 44 -17z
m1510 -48 c0 -36 -3 -40 -27 -43 -27 -3 -28 -2 -28 43 0 45 1 46 28 43 24 -3
27 -7 27 -43z m-2150 15 c0 -22 -29 -18 -33 3 -3 14 1 18 15 15 10 -2 18 -10
18 -18z m921 -104 c209 -105 396 -236 588 -410 51 -45 84 -68 101 -68 23 0 29
-16 11 -30 -5 -3 31 -51 80 -105 116 -127 204 -230 204 -237 0 -24 -272 207
-340 289 -25 29 -49 53 -55 53 -17 -2 -45 14 -45 24 0 6 6 5 15 -2 9 -7 15 -8
15 -2 0 34 -367 315 -397 305 -7 -3 -13 1 -13 9 0 7 -53 45 -117 82 -65 38
-132 78 -150 88 -17 10 -36 32 -41 47 -10 28 -5 51 7 33 3 -5 65 -39 137 -76z
m519 74 c-3 -5 -11 -10 -16 -10 -6 0 -7 5 -4 10 3 6 11 10 16 10 6 0 7 -4 4
-10z m-1615 -70 c0 -5 -4 -10 -10 -10 -5 0 -10 5 -10 10 0 6 5 10 10 10 6 0
10 -4 10 -10z m2422 -18 c10 -12 10 -16 1 -19 -9 -3 -13 -35 -13 -112 0 -101
-1 -108 -20 -106 -11 1 -23 4 -26 8 -4 4 -18 7 -31 7 -23 0 -23 1 -23 115 l0
115 24 0 c14 0 27 4 30 9 8 12 42 2 58 -17z m104 8 c11 0 14 -22 14 -115 0
-85 -3 -115 -12 -115 -7 0 -23 -3 -35 -6 -23 -6 -23 -6 -23 113 0 66 3 123 7
127 4 3 13 4 21 1 7 -3 20 -5 28 -5z m-69 -32 c-3 -8 -6 -5 -6 6 -1 11 2 17 5
13 3 -3 4 -12 1 -19z m-409 -14 c4 -26 -20 -37 -44 -20 -24 18 -11 48 18 44
14 -2 24 -11 26 -24z m112 -34 c-13 -24 -38 -26 -46 -5 -10 24 14 47 37 34 15
-8 17 -14 9 -29z m-430 0 c23 -42 -29 -82 -69 -53 -39 27 -20 73 31 73 17 0
31 -7 38 -20z m-1003 -32 c-3 -8 -6 -5 -6 6 -1 11 2 17 5 13 3 -3 4 -12 1 -19z
m-4347 8 c0 -3 -4 -8 -10 -11 -5 -3 -10 -1 -10 4 0 6 5 11 10 11 6 0 10 -2 10
-4z m565 -36 c-6 -9 -9 -9 -16 1 -10 17 0 34 13 21 6 -6 7 -16 3 -22z m1555
-10 c0 -5 -5 -10 -11 -10 -5 0 -7 5 -4 10 3 6 8 10 11 10 2 0 4 -4 4 -10z
m-50 -10 c0 -5 -5 -10 -11 -10 -5 0 -7 5 -4 10 3 6 8 10 11 10 2 0 4 -4 4 -10z
m189 -143 c21 -45 41 -93 44 -107 19 -80 -304 -681 -466 -866 -72 -82 -137
-88 -519 -44 -294 34 -394 64 -409 123 -8 31 1 36 17 9 6 -9 34 -30 61 -45 64
-34 227 -55 498 -64 209 -6 253 0 305 43 74 63 219 287 310 479 111 234 125
268 113 272 -9 3 -6 11 7 26 23 24 25 37 8 37 -9 0 -9 3 1 9 19 12 2 71 -40
142 -34 58 -34 58 -13 87 l16 23 15 -21 c8 -11 32 -58 52 -103z m3359 106 c-2
-10 -10 -18 -18 -18 -8 0 -16 8 -18 18 -2 12 3 17 18 17 15 0 20 -5 18 -17z
m-3603 -3 c3 -6 -1 -13 -10 -16 -19 -8 -30 0 -20 15 8 14 22 14 30 1z m120
-16 c0 -22 -4 -25 -27 -21 -16 2 -28 0 -28 -5 0 -4 -5 -8 -11 -8 -6 0 -9 6 -6
13 2 6 12 11 23 10 10 -1 24 7 32 18 17 24 17 24 17 -7z m4227 11 c0 -5 -5
-11 -11 -13 -6 -2 -11 4 -11 13 0 9 5 15 11 13 6 -2 11 -8 11 -13z m-574 -22
c3 -20 -1 -23 -27 -23 -23 0 -31 5 -31 18 0 25 10 33 35 30 12 -2 21 -12 23
-25z m-5381 -35 c-3 -8 -6 -5 -6 6 -1 11 2 17 5 13 3 -3 4 -12 1 -19z m-250
-42 c-4 -9 -11 -16 -17 -16 -11 0 -14 33 -3 43 11 11 26 -10 20 -27z m5791
-18 c-3 -38 -6 -43 -28 -43 -22 0 -25 5 -28 43 -3 41 -2 42 28 42 30 0 31 -1
28 -42z m-2008 17 c0 -8 -7 -15 -15 -15 -16 0 -20 12 -8 23 11 12 23 8 23 -8z
m-340 -5 c0 -5 -5 -10 -11 -10 -5 0 -7 5 -4 10 3 6 8 10 11 10 2 0 4 -4 4 -10z
m-3030 -31 c0 -27 -2 -30 -15 -19 -11 9 -12 17 -4 31 14 27 19 24 19 -12z
m2758 13 l23 -18 -21 -56 c-27 -73 -42 -86 -75 -64 l-24 16 25 52 c14 29 28
61 31 71 7 21 12 21 41 -1z m-1145 -66 c6 -14 -20 -52 -29 -43 -9 9 -33 -24
-34 -46 0 -10 -4 -16 -9 -12 -8 5 -35 -54 -56 -125 -12 -40 -25 -50 -65 -50
-55 0 -78 -24 -91 -95 -6 -35 -21 -74 -35 -93 -26 -33 -90 -72 -120 -72 -10 0
-14 -3 -11 -7 12 -11 85 -4 125 12 l37 15 -32 -29 c-47 -43 -100 -57 -166 -42
-84 19 -85 19 -25 101 75 104 350 472 366 490 11 13 12 8 7 -30 -4 -25 -7 -51
-8 -59 0 -8 -8 -22 -18 -32 -25 -25 -55 -84 -37 -73 46 27 83 64 111 111 19
32 41 56 55 59 25 7 27 15 10 33 -11 10 -10 11 4 6 9 -4 19 -12 21 -19z m1508
-9 c-1 -12 -15 -9 -19 4 -3 6 1 10 8 8 6 -3 11 -8 11 -12z m2338 -20 c5 -12 6
-73 3 -135 l-5 -113 -46 3 -46 3 -3 85 c-2 52 -8 87 -15 92 -9 6 -9 8 1 8 6 0
12 12 12 28 0 23 6 30 33 39 49 16 57 15 66 -10z m109 7 c21 -6 22 -10 22
-130 l0 -124 -35 0 -35 0 0 101 c0 55 -4 98 -8 95 -5 -3 -4 10 2 29 11 36 16
39 54 29z m-2157 -49 c-44 -40 -107 -152 -115 -207 -3 -21 -8 -54 -11 -73 -8
-47 9 -45 23 3 16 51 70 134 85 129 16 -5 13 -28 -11 -104 -11 -35 -17 -63
-14 -63 4 1 24 26 45 56 22 30 45 58 52 60 11 5 135 -43 135 -51 0 -2 -18 -37
-39 -79 -39 -76 -61 -165 -61 -244 0 -23 -2 -42 -4 -42 -17 0 -198 65 -225 81
l-35 21 -18 -24 c-9 -13 -18 -18 -18 -12 0 6 7 17 15 24 13 10 11 16 -10 44
-14 18 -25 43 -25 56 l0 23 23 -21 c27 -25 57 -29 57 -7 0 8 11 17 25 21 36 9
31 38 -12 78 -21 19 -46 47 -55 64 -17 28 -17 30 16 98 35 71 101 144 166 183
51 31 55 26 11 -14z m116 11 c-4 -10 -13 -13 -23 -9 -15 6 -15 7 1 20 21 15
30 10 22 -11z m1624 -11 c11 -4 23 -4 26 -1 4 3 12 1 20 -5 9 -9 13 -8 13 0 0
6 10 11 23 10 21 0 21 -1 -3 -11 -14 -6 -28 -10 -32 -10 -5 1 -8 -2 -8 -6 0
-5 -25 -10 -57 -11 -46 -1 -61 -6 -79 -26 -29 -32 -48 -31 -80 0 -18 19 -36
25 -67 25 -39 1 -41 2 -23 15 15 11 23 12 33 3 9 -7 17 -8 21 -2 11 15 81 36
93 28 7 -4 29 -8 50 -10 34 -3 39 -1 40 19 1 16 3 17 6 5 2 -9 13 -20 24 -23z
m-5241 -5 c12 -8 11 -10 -7 -10 -13 0 -23 5 -23 10 0 13 11 13 30 0z m5395 0
c3 -5 -1 -10 -9 -10 -8 0 -18 5 -21 10 -3 6 1 10 9 10 8 0 18 -4 21 -10z
m-5253 -22 c-7 -7 -12 -8 -12 -2 0 14 12 26 19 19 2 -3 -1 -11 -7 -17z m4368
13 c0 -12 -20 -25 -27 -18 -7 7 6 27 18 27 5 0 9 -4 9 -9z m-1935 -11 c3 -5 1
-10 -4 -10 -6 0 -11 5 -11 10 0 6 2 10 4 10 3 0 8 -4 11 -10z m3165 0 c0 -5
-4 -10 -10 -10 -5 0 -10 5 -10 10 0 6 5 10 10 10 6 0 10 -4 10 -10z m-3210
-24 c0 -11 -19 -15 -25 -6 -3 5 1 10 9 10 9 0 16 -2 16 -4z m751 -23 l41 -27
-28 -8 c-31 -8 -58 7 -50 29 4 11 0 13 -14 8 -14 -5 -20 -2 -20 9 0 23 25 19
71 -11z m-1581 -3 c0 -5 -5 -10 -11 -10 -5 0 -7 5 -4 10 3 6 8 10 11 10 2 0 4
-4 4 -10z m1123 -68 c48 -35 87 -67 87 -70 -1 -4 -10 -18 -20 -31 l-20 -23
-43 39 c-24 22 -65 53 -93 68 -27 16 -50 30 -52 31 -2 1 4 16 13 33 18 36 10
39 128 -47z m1171 40 c-69 -45 -109 -88 -154 -167 -28 -50 -33 -69 -38 -148
-4 -66 -2 -88 7 -83 6 4 11 15 11 24 0 27 56 117 90 146 l32 26 39 -22 c22
-12 54 -34 72 -49 l32 -27 -31 -43 c-59 -83 -114 -210 -114 -266 0 -28 -3 -28
-60 -5 -99 39 -169 82 -185 113 -21 39 -15 45 18 19 14 -11 56 -35 93 -52 72
-34 99 -31 99 10 0 15 -19 34 -65 64 -54 36 -70 53 -97 106 -18 35 -33 76 -33
91 0 65 141 209 264 271 82 41 91 37 20 -8z m687 -73 c143 -114 190 -159 245
-233 65 -86 62 -100 -38 -163 -46 -28 -112 -63 -148 -76 -36 -14 -74 -29 -85
-33 -11 -4 10 20 47 55 83 77 138 151 138 183 0 27 -62 105 -208 266 -46 50
-80 92 -75 92 5 0 61 -41 124 -91z m-2555 24 c-2 -10 -8 -34 -11 -52 l-7 -35
27 18 c15 10 29 15 32 13 8 -8 -41 -48 -53 -43 -7 3 -17 -26 -28 -76 -10 -44
-20 -86 -23 -94 -3 -9 1 -14 12 -14 15 0 13 -5 -9 -25 -26 -24 -36 -65 -15
-65 8 0 8 -5 -1 -15 -7 -8 -16 -13 -20 -10 -9 5 -19 -36 -26 -105 l-5 -45 14
30 c8 17 31 54 51 84 l37 54 -8 -44 c-12 -71 -10 -114 6 -111 9 2 11 -3 7 -13
-7 -20 18 -70 39 -79 9 -3 13 -10 10 -16 -12 -19 6 -50 28 -50 15 0 18 -3 10
-11 -8 -8 -8 -18 -1 -35 10 -22 30 -29 66 -25 7 1 12 -9 12 -24 0 -17 -6 -25
-17 -26 -15 -1 -16 -2 -2 -6 18 -4 21 -31 23 -173 1 -74 -2 -89 -22 -117 -13
-18 -28 -33 -33 -33 -5 0 -9 25 -9 55 0 61 -14 96 -85 204 -75 117 -217 363
-225 392 -6 21 -5 29 4 29 7 0 33 32 59 72 42 65 60 109 135 338 3 8 -25 -34
-61 -93 -36 -60 -63 -115 -60 -123 3 -9 -2 -14 -13 -14 -13 0 -33 -25 -62 -75
l-44 -75 -34 29 c-33 29 -64 41 -152 58 l-44 8 21 24 c12 13 54 84 93 157 40
73 74 132 75 130 1 -1 -6 -31 -17 -67 -11 -35 -20 -87 -20 -116 0 -48 2 -53
34 -73 30 -18 38 -19 56 -8 35 22 170 204 159 215 -6 6 1 14 18 23 16 8 38 27
51 42 27 32 35 35 28 11z m-2846 -45 c0 -13 -23 -5 -28 10 -2 7 2 10 12 6 9
-3 16 -11 16 -16z m4350 2 c0 -5 -2 -10 -4 -10 -3 0 -8 5 -11 10 -3 6 -1 10 4
10 6 0 11 -4 11 -10z m-1694 -56 c-27 -13 -51 -23 -53 -20 -9 9 52 46 76 46
22 0 19 -4 -23 -26z m-2636 2 c0 -3 -4 -8 -10 -11 -5 -3 -10 -1 -10 4 0 6 5
11 10 11 6 0 10 -2 10 -4z m2900 -6 c0 -5 -4 -10 -10 -10 -5 0 -10 5 -10 10 0
6 5 10 10 10 6 0 10 -4 10 -10z m310 -5 c0 -8 -4 -15 -10 -15 -5 0 -10 7 -10
15 0 8 5 15 10 15 6 0 10 -7 10 -15z m3041 5 l129 0 0 -355 c0 -360 -11 -462
-25 -227 -6 100 -10 123 -19 109 -24 -40 -35 -52 -41 -46 -3 4 -15 51 -26 105
-11 55 -29 129 -40 166 -15 50 -17 72 -9 93 15 40 13 45 -22 45 -45 0 -28 11
50 31 l67 17 -178 1 -178 1 -24 28 -23 27 91 6 c51 3 98 4 105 2 8 -2 72 -3
143 -3z m-3721 -14 c0 -3 -4 -8 -10 -11 -5 -3 -10 -1 -10 4 0 6 5 11 10 11 6
0 10 -2 10 -4z m570 -6 c0 -5 -5 -10 -11 -10 -5 0 -7 5 -4 10 3 6 8 10 11 10
2 0 4 -4 4 -10z m2810 -14 c0 -2 -7 -7 -16 -10 -8 -3 -12 -2 -9 4 6 10 25 14
25 6z m-2746 -22 c9 -24 2 -26 -12 -4 -7 11 -8 20 -3 20 5 0 12 -7 15 -16z
m1579 9 c-7 -2 -19 -2 -25 0 -7 3 -2 5 12 5 14 0 19 -2 13 -5z m-1547 -39 c-4
-9 -9 -15 -11 -12 -3 3 -3 13 1 22 4 9 9 15 11 12 3 -3 3 -13 -1 -22z m1895
15 c24 -12 16 -29 -14 -29 -38 0 -140 -55 -186 -101 -48 -48 -80 -109 -81
-151 0 -44 -18 -42 -30 3 -15 54 -8 77 40 137 47 60 112 107 183 133 62 22 63
22 88 8z m-1117 -18 c3 -5 -3 -11 -15 -14 -16 -4 -18 -3 -8 9 13 16 16 17 23
5z m-804 -21 c0 -5 -4 -10 -10 -10 -5 0 -10 5 -10 10 0 6 5 10 10 10 6 0 10
-4 10 -10z m-1288 -22 c-7 -7 -12 -8 -12 -2 0 14 12 26 19 19 2 -3 -1 -11 -7
-17z m1898 12 c0 -5 -2 -10 -4 -10 -3 0 -8 5 -11 10 -3 6 -1 10 4 10 6 0 11
-4 11 -10z m-580 -4 c0 -3 -4 -8 -10 -11 -5 -3 -10 -1 -10 4 0 6 5 11 10 11 6
0 10 -2 10 -4z m2670 -6 c0 -5 -4 -10 -10 -10 -5 0 -10 5 -10 10 0 6 5 10 10
10 6 0 10 -4 10 -10z m-3003 -35 c-7 -5 -17 -19 -21 -30 -7 -19 -8 -19 -18 -2
-8 14 -5 23 14 40 14 14 26 19 30 12 4 -5 2 -14 -5 -20z m868 25 c3 -5 -1 -10
-9 -10 -9 0 -16 5 -16 10 0 6 4 10 9 10 6 0 13 -4 16 -10z m2355 -30 c0 -5 -5
-10 -11 -10 -5 0 -7 5 -4 10 3 6 8 10 11 10 2 0 4 -4 4 -10z m-6266 -45 c-7
-16 -24 -21 -24 -6 0 8 7 13 27 20 1 1 0 -6 -3 -14z m6728 -7 c-7 -7 -12 -8
-12 -2 0 14 12 26 19 19 2 -3 -1 -11 -7 -17z m-3682 2 c0 -5 -5 -10 -11 -10
-5 0 -7 5 -4 10 3 6 8 10 11 10 2 0 4 -4 4 -10z m2060 -108 c-22 -25 -40 -48
-40 -53 0 -4 23 8 51 27 28 19 57 34 64 34 12 0 96 -114 94 -129 -1 -11 -129
-116 -154 -126 -53 -19 -187 40 -206 92 -7 19 -1 18 76 -18 106 -50 192 -54
138 -7 -10 8 -42 28 -71 43 -29 16 -57 34 -63 42 -13 15 1 41 69 121 42 50 46
52 63 36 18 -16 17 -18 -21 -62z m-4080 27 c0 -11 -4 -17 -10 -14 -5 3 -10 13
-10 21 0 8 5 14 10 14 6 0 10 -9 10 -21z m2960 11 c0 -5 -2 -10 -4 -10 -3 0
-8 5 -11 10 -3 6 -1 10 4 10 6 0 11 -4 11 -10z m1400 -4 c0 -8 -4 -17 -9 -21
-12 -7 -24 12 -16 25 9 15 25 12 25 -4z m-2805 -10 c75 -18 85 -29 206 -231
106 -177 119 -207 119 -274 0 -87 -38 -89 -75 -5 -15 34 -33 58 -52 67 -36 19
-132 37 -195 37 -26 0 -48 3 -48 8 0 4 33 20 73 35 39 15 78 32 86 36 11 7 -7
40 -79 149 -75 115 -98 142 -121 147 -32 7 -35 15 -17 33 15 15 29 15 103 -2z
m790 -16 c3 -5 1 -10 -4 -10 -6 0 -11 5 -11 10 0 6 2 10 4 10 3 0 8 -4 11 -10z
m875 6 c0 -3 -4 -8 -10 -11 -5 -3 -10 -1 -10 4 0 6 5 11 10 11 6 0 10 -2 10
-4z m-930 -10 c0 -3 -4 -8 -10 -11 -5 -3 -10 -1 -10 4 0 6 5 11 10 11 6 0 10
-2 10 -4z m603 -74 c20 -14 37 -27 37 -29 0 -2 -55 -67 -121 -144 l-122 -140
-33 50 c-19 28 -34 54 -34 60 0 13 67 96 140 175 66 70 67 71 133 28z m-1498
-137 c-24 -76 -56 -153 -70 -171 -55 -72 -20 -101 98 -83 87 14 333 3 306 -14
-2 -1 -49 -24 -104 -51 l-100 -50 60 -7 c33 -4 103 -17 155 -29 117 -27 155
-27 181 -4 16 14 20 28 17 59 -3 22 -8 49 -13 60 -4 11 14 -9 41 -44 44 -59
49 -70 52 -129 l5 -65 -34 6 c-111 21 -292 38 -342 34 -69 -6 -142 -40 -212
-98 -68 -56 -94 -99 -106 -172 -18 -113 -15 -107 -59 -107 -45 0 -52 15 -15
32 24 11 33 29 55 118 13 51 66 110 193 217 43 36 76 67 74 69 -8 8 -145 -53
-181 -81 -31 -24 -39 -26 -46 -14 -5 7 -39 52 -76 99 -74 94 -104 139 -104
157 0 7 17 21 39 32 43 23 83 65 111 122 29 56 25 58 -19 12 -37 -38 -148
-103 -177 -103 -9 0 -11 -6 -7 -17 5 -15 4 -16 -8 -7 -8 6 -81 17 -164 23 -82
7 -199 21 -260 31 -60 11 -128 21 -150 23 l-40 5 45 -42 c25 -22 75 -74 110
-115 58 -66 62 -74 38 -68 -16 4 -83 64 -167 149 -78 78 -141 143 -141 143 0
1 46 -7 103 -16 167 -28 394 -51 517 -53 108 -1 119 1 173 28 47 23 69 42 111
100 70 94 149 181 153 169 2 -6 -17 -72 -42 -148z m995 124 c0 -5 -7 -9 -15
-9 -15 0 -20 12 -9 23 8 8 24 -1 24 -14z m2618 -4 c34 -8 86 -27 115 -41 59
-30 140 -84 135 -90 -2 -2 -31 4 -63 14 -48 13 -103 17 -275 17 -192 0 -224
-3 -298 -23 -106 -29 -214 -72 -320 -127 -82 -42 -88 -33 -11 20 21 15 37 31
34 35 -2 3 1 7 8 7 7 0 44 20 82 45 210 136 414 185 593 143z m-632 -72 c-11
-11 -19 6 -11 24 8 17 8 17 12 0 3 -10 2 -21 -1 -24z m-4352 12 c-4 -8 -8 -15
-10 -15 -2 0 -4 7 -4 15 0 8 4 15 10 15 5 0 7 -7 4 -15z m2086 -5 c0 -5 -7
-10 -15 -10 -8 0 -15 5 -15 10 0 6 7 10 15 10 8 0 15 -4 15 -10z m1570 -65
c113 -31 243 -69 290 -84 85 -26 85 -26 41 -29 -56 -4 -227 21 -361 53 -58 14
-115 27 -127 30 -51 12 -18 -27 90 -106 109 -81 259 -216 279 -252 6 -13 6
-23 -2 -32 -10 -12 -16 -9 -37 15 -61 73 -308 209 -490 269 -86 29 -255 67
-401 91 -52 8 -71 15 -63 23 19 19 387 -48 505 -93 19 -7 26 -6 26 3 0 9 2 9
8 0 7 -12 143 -65 150 -59 1 2 -40 31 -93 65 -85 56 -128 78 -229 120 -23 9
-26 14 -16 26 16 20 43 24 140 20 67 -2 129 -15 290 -60z m1990 5 c0 -5 -2
-10 -4 -10 -3 0 -8 5 -11 10 -3 6 -1 10 4 10 6 0 11 -4 11 -10z m-3430 -10 c0
-5 -2 -10 -4 -10 -3 0 -8 5 -11 10 -3 6 -1 10 4 10 6 0 11 -4 11 -10z m95 -30
c3 -5 -3 -10 -15 -10 -12 0 -18 5 -15 10 3 6 10 10 15 10 5 0 12 -4 15 -10z
m2808 -11 c130 -24 279 -113 401 -240 72 -75 176 -223 164 -234 -2 -2 -29 14
-61 36 -62 41 -177 82 -267 94 -52 7 -54 7 -40 -10 14 -18 14 -18 -12 -1 -37
24 -112 15 -132 -17 -40 -64 -73 -484 -40 -517 6 -6 19 -5 36 4 15 8 29 12 32
8 10 -9 -16 -32 -37 -32 -19 0 -19 -2 7 -29 29 -30 49 -40 124 -60 50 -14 75
-55 98 -160 31 -146 67 -662 46 -675 -6 -3 -11 21 -14 66 -2 43 -9 73 -16 76
-8 2 -8 8 0 22 9 14 8 50 -6 154 -20 158 -40 244 -71 306 -27 53 -66 92 -72
73 -3 -7 -21 -13 -41 -13 l-37 0 25 20 c31 25 21 33 -64 50 -73 14 -100 30
-122 72 -34 65 -35 85 -7 141 25 50 27 63 37 305 11 249 11 254 35 273 34 28
111 47 241 60 63 6 117 12 118 14 8 7 -86 68 -153 100 -38 19 -110 46 -160 61
-82 25 -106 27 -278 29 -117 1 -192 6 -199 13 -7 7 10 12 58 17 38 3 76 8 84
10 24 6 270 -6 323 -16z m-459 -64 c52 -22 123 -90 152 -147 37 -73 52 -153
74 -388 11 -118 25 -239 30 -269 15 -82 12 -82 -24 -6 -70 149 -163 267 -244
309 -82 43 -93 113 -37 257 49 128 46 153 -27 190 l-41 21 -44 -44 c-116 -114
-166 -368 -102 -519 35 -81 113 -140 199 -151 20 -2 25 1 24 20 0 12 3 22 8
22 8 0 10 -6 12 -32 1 -7 26 -25 58 -41 33 -16 76 -49 106 -81 46 -51 121
-179 137 -236 4 -14 17 -33 29 -42 16 -13 18 -20 8 -26 -9 -6 -9 -20 4 -62 14
-48 18 -52 29 -37 7 9 17 17 23 17 6 0 15 8 21 17 5 10 13 15 17 11 9 -10 -15
-38 -32 -38 -7 0 -18 -10 -25 -21 -15 -30 25 -121 50 -111 14 5 14 3 3 -10
-11 -14 -10 -18 7 -28 12 -6 20 -14 20 -18 -3 -19 2 -32 14 -32 6 0 19 -15 27
-32 19 -41 113 -118 144 -118 30 0 35 14 43 109 6 78 19 126 20 74 0 -15 6
-100 12 -188 6 -94 7 -163 2 -168 -5 -5 -32 -7 -60 -6 -47 4 -51 2 -51 -18 0
-17 -5 -21 -25 -19 -33 4 -39 11 -20 26 24 20 18 26 -42 40 -31 7 -76 21 -101
31 -24 11 -52 19 -63 19 -10 0 -19 4 -19 9 0 5 -15 25 -34 46 -19 20 -56 78
-83 128 -131 249 -224 305 -480 294 -70 -3 -175 -15 -233 -27 -128 -26 -200
-23 -235 10 -55 52 -89 215 -101 490 -5 132 -4 164 11 218 45 161 198 318 461
476 27 16 54 31 59 32 6 1 39 15 75 31 36 17 72 33 80 36 24 10 122 -1 164
-18z m-5594 -5 c0 -5 -2 -10 -4 -10 -3 0 -8 5 -11 10 -3 6 -1 10 4 10 6 0 11
-4 11 -10z m1294 -25 c25 -38 21 -74 -10 -85 -39 -15 -41 -13 -33 38 4 26 8
53 8 60 1 20 17 14 35 -13z m2685 14 c36 -6 69 -14 74 -18 17 -16 -452 -548
-516 -585 -23 -14 -85 -38 -137 -55 -122 -39 -144 -58 -178 -151 -16 -42 -52
-111 -82 -154 -63 -94 -71 -141 -30 -162 42 -22 250 -82 250 -73 0 5 5 9 10 9
6 0 10 -6 10 -12 0 -7 48 -37 108 -67 97 -50 117 -65 217 -167 63 -64 141
-132 183 -159 153 -98 384 -190 556 -220 109 -19 137 -19 161 -1 19 14 19 16
2 78 -77 280 -72 244 -71 478 1 144 6 241 16 295 l15 80 1 -185 c1 -227 15
-341 64 -490 23 -72 111 -255 128 -265 14 -9 13 7 -3 30 -43 63 -104 282 -121
435 l-6 55 34 -80 c18 -44 59 -133 89 -197 45 -94 60 -118 77 -118 11 0 20 -4
20 -10 0 -5 -7 -10 -16 -10 -13 0 -15 -7 -10 -32 4 -18 9 -74 13 -124 l5 -91
-31 -13 c-17 -7 -31 -16 -31 -20 0 -29 -407 -33 -635 -6 -419 48 -728 97 -775
121 -16 8 -56 48 -89 88 -129 159 -222 222 -419 286 -66 22 -129 44 -139 49
-17 9 -40 67 -57 144 -5 20 -11 26 -24 22 -15 -5 -15 -4 -1 5 13 9 15 19 8 53
-9 50 -10 269 0 313 3 16 14 31 23 33 15 3 16 -7 11 -105 -7 -140 4 -266 22
-259 11 4 12 0 4 -18 -8 -18 -7 -37 5 -79 18 -62 48 -92 105 -106 20 -5 79
-19 131 -31 194 -45 333 -138 424 -283 28 -46 82 -64 391 -136 255 -59 478
-74 665 -46 66 10 120 22 120 25 0 4 -55 18 -122 30 -68 13 -144 34 -169 46
-25 12 -102 41 -172 64 -69 22 -159 54 -198 71 -43 17 -80 27 -92 23 -15 -5
-19 -3 -14 9 4 10 -7 24 -35 42 -22 14 -72 55 -112 89 -64 57 -158 125 -211
154 -43 24 12 11 95 -23 46 -19 86 -33 88 -31 1 2 -21 25 -50 50 -101 89 -292
165 -414 166 -61 0 -164 35 -206 70 -39 33 -63 87 -54 124 3 12 28 42 56 65
28 24 62 65 76 92 20 41 84 197 84 206 0 2 -11 3 -24 3 -14 0 -28 5 -31 10 -3
6 1 10 9 10 9 0 16 4 16 9 0 5 13 9 29 9 18 -1 52 14 90 40 34 22 98 55 144
72 119 46 149 64 202 117 43 43 275 313 335 390 29 37 24 36 109 22z m1831 -3
c0 -2 -7 -7 -16 -10 -8 -3 -12 -2 -9 4 6 10 25 14 25 6z m-1076 -50 c-3 -9
-10 -13 -16 -10 -5 3 -4 12 3 20 15 18 22 13 13 -10z m-4354 4 c0 -5 -5 -10
-11 -10 -5 0 -7 5 -4 10 3 6 8 10 11 10 2 0 4 -4 4 -10z m540 1 c0 -6 -4 -13
-10 -16 -5 -3 -10 1 -10 9 0 9 5 16 10 16 6 0 10 -4 10 -9z m3915 -1 c-3 -5
-10 -10 -16 -10 -5 0 -9 5 -9 10 0 6 7 10 16 10 8 0 12 -4 9 -10z m55 -46
c-18 -21 -24 -10 -9 18 8 14 14 18 17 10 2 -7 -2 -19 -8 -28z m-4350 11 c-7
-9 -15 -13 -17 -11 -7 7 7 26 19 26 6 0 6 -6 -2 -15z m5946 -37 c-18 -10 -46
-4 -46 10 0 5 14 6 31 4 26 -4 29 -6 15 -14z m-5201 -27 c3 -5 -3 -31 -14 -57
-13 -35 -26 -51 -45 -57 -15 -5 -29 -7 -31 -5 -7 7 36 112 48 120 16 10 35 10
42 -1z m3051 -25 c80 -27 201 -86 262 -128 l42 -29 -72 -56 c-241 -185 -418
-366 -418 -426 0 -22 33 -46 91 -68 30 -12 62 -28 72 -36 44 -41 6 -124 -148
-323 -120 -155 -139 -188 -130 -231 9 -41 66 -93 142 -131 35 -17 62 -33 59
-35 -2 -2 -32 3 -66 12 -52 13 -65 14 -72 3 -7 -10 -8 -8 -4 5 3 9 0 17 -6 17
-28 0 -198 92 -241 130 -51 45 -147 174 -147 196 0 7 53 40 118 74 150 77 252
154 231 174 -3 3 -42 8 -88 12 -53 5 -98 15 -124 28 -37 18 -42 26 -45 60 -8
97 124 275 361 483 68 60 107 102 107 114 0 26 -46 45 -132 54 -38 4 -68 10
-68 13 0 4 26 33 58 65 57 58 57 58 103 53 26 -4 77 -17 115 -30z m-2801 -86
c45 -51 97 -80 142 -80 23 0 43 5 43 10 0 6 -10 10 -23 10 -13 0 -32 7 -43 15
-17 13 -13 14 49 15 125 0 197 -50 334 -233 56 -75 75 -136 54 -176 -14 -25
-74 -31 -65 -6 3 8 11 13 17 12 19 -3 20 62 2 109 -47 123 -301 246 -389 189
-22 -15 -25 -12 -108 77 -47 51 -91 104 -98 117 -12 23 -11 23 26 -6 21 -17
48 -41 59 -53z m-161 44 c7 -18 -4 -94 -13 -94 -21 0 -27 23 -17 65 11 47 20
56 30 29z m484 -27 c9 -10 2 -13 -31 -14 l-42 -2 30 14 c17 7 31 14 31 14 1 1
6 -5 12 -12z m-631 -81 c-3 -8 -11 -32 -18 -54 -10 -35 -16 -41 -47 -46 -20
-3 -37 -4 -39 -2 -8 8 37 95 54 105 27 15 56 14 50 -3z m5239 -47 c84 -35 158
-83 186 -119 12 -16 24 -65 35 -140 9 -63 20 -118 26 -121 5 -4 5 -9 -2 -13
-7 -5 -11 -62 -11 -169 0 -263 -10 -322 -75 -452 -67 -135 -144 -258 -145
-230 0 11 14 88 31 170 25 122 29 164 24 225 -12 149 -75 302 -149 366 -21 18
-37 37 -33 40 11 11 90 -42 146 -98 l54 -53 -7 50 c-4 29 -17 65 -33 88 -39
56 -146 144 -220 180 -34 17 -63 35 -63 40 0 30 233 -54 269 -97 25 -30 30
-16 14 37 -20 67 -63 153 -122 242 -25 39 -50 76 -55 84 -13 20 36 9 130 -30z
m-316 21 c0 -5 -9 -14 -20 -20 -22 -12 -27 -1 -8 18 14 14 28 16 28 2z m-4825
-20 c9 -29 -25 -114 -39 -100 -16 16 -15 90 1 90 7 0 13 7 13 15 0 22 18 18
25 -5z m4015 10 c0 -5 -4 -10 -10 -10 -5 0 -10 5 -10 10 0 6 5 10 10 10 6 0
10 -4 10 -10z m950 -20 c0 -5 -9 -10 -20 -10 -11 0 -20 5 -20 10 0 6 9 10 20
10 11 0 20 -4 20 -10z m-3639 -105 c10 -43 12 -68 5 -75 -5 -5 -6 -13 -3 -17
4 -4 17 3 29 14 15 15 23 38 26 77 4 54 5 56 34 56 l29 0 -6 -53 -7 -54 71
-52 c39 -29 71 -55 71 -57 0 -3 -7 -18 -15 -34 -22 -42 -63 -70 -104 -70 -39
0 -121 -33 -121 -49 0 -10 -49 -30 -92 -37 -37 -7 -35 10 5 39 47 36 125 68
182 76 l50 7 -34 18 c-19 10 -49 18 -68 18 -26 0 -32 3 -24 11 14 14 134 16
176 3 24 -7 19 -1 -23 28 -88 61 -121 60 -280 -16 -60 -28 -88 -48 -102 -71
l-20 -32 0 45 c0 38 -7 55 -44 105 -35 46 -42 62 -34 73 9 10 17 4 39 -32 32
-51 71 -81 94 -72 23 8 18 40 -15 107 -17 33 -28 64 -25 69 14 23 32 5 59 -60
31 -77 45 -93 70 -84 29 11 36 47 21 110 -19 77 -19 74 13 74 26 0 29 -4 43
-65z m-815 10 c79 -24 144 -94 144 -154 0 -47 -10 -82 -21 -75 -5 3 -9 17 -9
31 0 35 -43 107 -79 132 -16 12 -32 21 -35 21 -3 0 -3 -21 1 -47 6 -45 6 -46
-18 -39 -91 28 -99 28 -144 13 -45 -14 -45 -14 -39 7 22 77 30 89 69 107 50
22 69 23 131 4z m4304 5 c0 -5 -4 -10 -9 -10 -6 0 -13 5 -16 10 -3 6 1 10 9
10 9 0 16 -4 16 -10z m-4965 -97 c-5 -36 -10 -43 -28 -43 -12 0 -35 -7 -51
-15 -16 -9 -31 -13 -34 -11 -2 3 2 31 9 63 13 54 17 60 59 81 l45 23 3 -28 c2
-15 1 -46 -3 -70z m4295 87 c0 -5 -4 -10 -10 -10 -5 0 -10 5 -10 10 0 6 5 10
10 10 6 0 10 -4 10 -10z m-4201 -102 c-11 -52 -13 -56 -31 -45 -20 13 -19 47
3 105 9 22 12 24 24 11 13 -12 13 -24 4 -71z m2771 52 c0 -5 -4 -10 -10 -10
-5 0 -10 5 -10 10 0 6 5 10 10 10 6 0 10 -4 10 -10z m2100 -10 c0 -5 -4 -10
-9 -10 -6 0 -13 5 -16 10 -3 6 1 10 9 10 9 0 16 -4 16 -10z m-4384 -105 c56
-16 96 -52 118 -107 20 -46 20 -115 1 -148 -14 -25 -14 -24 -15 18 0 24 -10
66 -22 94 -20 47 -22 49 -30 27 -5 -12 -6 -29 -4 -36 3 -7 1 -13 -4 -13 -4 0
-14 -16 -20 -36 -10 -30 -15 -35 -34 -29 -11 4 -38 10 -59 12 -30 4 -37 9 -32
22 8 20 45 154 45 161 0 3 -16 -24 -35 -60 -20 -35 -43 -71 -51 -80 -15 -14
-16 -12 -10 19 3 18 6 55 6 82 0 84 42 105 146 74z m2746 -17 c-15 -15 -26 -4
-18 18 5 13 9 15 18 6 9 -9 9 -15 0 -24z m-3332 -76 c0 -49 5 -83 13 -91 9
-10 9 -15 0 -18 -7 -2 -10 -10 -7 -17 3 -8 -5 -16 -20 -20 -13 -3 -38 -20 -55
-37 -26 -26 -31 -28 -31 -12 0 11 4 23 10 29 6 6 4 29 -5 64 -8 30 -15 67 -15
82 0 33 59 98 89 98 20 0 21 -5 21 -78z m1790 68 c0 -5 -6 -10 -14 -10 -8 0
-18 5 -21 10 -3 6 3 10 14 10 12 0 21 -4 21 -10z m-1699 -95 c3 -49 5 -91 3
-93 -1 -2 -13 16 -27 40 -45 78 -47 152 -4 146 20 -3 22 -10 28 -93z m654 27
c-9 -9 -25 11 -25 32 0 37 14 40 22 4 3 -18 5 -34 3 -36z m4357 -5 c-2 -9 -8
-20 -13 -23 -5 -3 -6 1 -3 9 3 8 1 18 -5 22 -12 7 -15 48 -4 59 10 9 31 -45
25 -67z m-3912 -17 c0 -5 -2 -10 -4 -10 -3 0 -8 5 -11 10 -3 6 -1 10 4 10 6 0
11 -4 11 -10z m-267 -117 c-11 -230 24 -462 96 -649 44 -113 47 -117 94 -102
45 14 45 -4 2 192 -28 131 -41 250 -31 290 12 49 107 72 184 45 26 -9 32 -18
41 -59 15 -67 53 -150 100 -217 23 -31 41 -60 41 -64 0 -5 -20 -17 -45 -28
-25 -11 -59 -30 -76 -42 -17 -12 -32 -20 -34 -18 -4 5 -61 243 -70 294 -12 70
-31 105 -58 105 -43 0 -50 -21 -43 -118 7 -84 21 -171 33 -202 3 -8 7 -31 10
-50 2 -19 11 -41 21 -49 11 -9 13 -15 5 -18 -8 -3 -8 -14 -1 -39 11 -42 0 -60
-49 -81 -65 -26 -79 -20 -117 55 -89 178 -131 340 -142 552 -6 106 7 287 21
310 18 29 23 -1 18 -107z m-883 83 c0 -3 -4 -8 -10 -11 -5 -3 -10 -1 -10 4 0
6 5 11 10 11 6 0 10 -2 10 -4z m510 -135 c14 -9 35 -37 48 -62 27 -54 38 -59
54 -24 14 32 29 14 21 -27 -4 -22 -11 -28 -31 -28 -14 0 -33 -7 -43 -16 -17
-15 -18 -15 -24 9 -6 23 -10 24 -38 16 -40 -11 -37 -12 -37 6 0 13 18 19 57
18 9 -1 8 7 -3 28 -8 16 -16 29 -19 29 -2 0 -22 -19 -44 -42 -29 -32 -37 -46
-29 -56 6 -7 8 -15 4 -19 -3 -4 3 -16 13 -27 23 -24 41 -83 22 -72 -6 4 -11
15 -11 25 0 10 -11 28 -25 41 -14 13 -24 29 -23 35 2 6 -12 30 -30 53 l-34 42
44 50 c38 43 47 49 73 44 17 -3 41 -13 55 -23z m-346 -16 l6 -30 -14 25 c-8
14 -12 28 -9 33 7 11 9 7 17 -28z m-140 -13 c23 -22 50 -43 60 -49 17 -10 17
-11 0 -44 -27 -52 -34 -106 -20 -160 11 -39 10 -46 -1 -42 -17 7 -38 48 -48
93 -4 19 -17 46 -30 60 -32 35 -65 92 -65 113 0 17 42 67 56 67 4 0 26 -17 48
-38z m4712 -81 c-12 -18 -21 -12 -21 14 0 20 2 22 14 11 7 -8 10 -19 7 -25z
m-4403 -50 c28 -57 36 -126 17 -162 -17 -30 -26 -22 -22 19 1 20 -2 43 -7 51
-14 21 -45 -7 -50 -44 -4 -37 -10 -47 -22 -40 -12 8 -12 52 1 60 6 4 5 13 -2
25 -11 16 -20 18 -77 13 l-64 -6 5 44 c11 91 15 94 109 94 l84 0 28 -54z
m4542 49 c9 -14 -45 -34 -58 -21 -7 7 -2 14 14 20 32 13 37 13 44 1z m-100
-40 c14 -15 15 -20 4 -20 -8 -1 -1 -11 16 -25 16 -13 26 -27 22 -31 -3 -4 -2
-15 3 -25 7 -12 7 -20 0 -24 -5 -3 -10 3 -10 14 0 11 -14 36 -31 56 -18 20
-29 38 -25 42 3 3 1 12 -5 20 -18 21 6 15 26 -7z m-1336 -62 c14 -19 5 -23
-18 -9 -7 5 -10 14 -6 21 4 6 8 10 9 8 1 -2 8 -11 15 -20z m1325 3 c3 -5 -1
-14 -8 -20 -16 -13 -32 2 -21 19 8 12 22 13 29 1z m-4359 -11 c-3 -5 -10 -10
-16 -10 -5 0 -9 5 -9 10 0 6 7 10 16 10 8 0 12 -4 9 -10z m45 -53 c0 -2 -10
-12 -21 -23 -22 -19 -22 -19 -10 4 10 18 31 31 31 19z m5101 -145 c-6 -35 -23
-93 -37 -130 -19 -51 -22 -67 -12 -74 10 -6 9 -8 -2 -8 -14 0 -94 -139 -85
-148 2 -2 25 24 52 59 87 112 84 112 53 12 -28 -88 -29 -96 -20 -190 5 -54 10
-141 10 -193 0 -63 4 -100 13 -109 10 -10 9 -15 -4 -25 -9 -6 -23 -32 -30 -56
-17 -57 -138 -190 -139 -152 0 13 11 33 25 45 13 12 40 49 60 81 33 57 35 64
35 150 -1 108 -23 243 -44 264 -13 13 -20 10 -66 -23 -28 -20 -53 -35 -55 -33
-3 2 -5 38 -6 80 l-1 76 68 108 c87 139 151 262 165 320 10 39 14 43 22 28 7
-12 6 -38 -2 -82z m-3955 31 c-10 -10 -19 5 -10 18 6 11 8 11 12 0 2 -7 1 -15
-2 -18z m539 -13 c-10 -11 -20 -18 -23 -15 -3 3 3 14 13 25 10 11 20 18 23 15
3 -3 -3 -14 -13 -25z m-2345 -57 c178 -106 192 -119 265 -263 l65 -128 -7
-108 c-4 -73 -3 -106 4 -103 12 4 78 81 87 101 4 9 8 10 11 2 3 -7 22 -38 41
-70 59 -97 64 -110 75 -193 7 -53 7 -90 1 -115 -6 -20 -7 -36 -2 -36 12 0 49
104 57 159 l7 46 12 -50 c20 -81 17 -214 -6 -287 -21 -70 -80 -162 -120 -187
-18 -11 -13 -2 17 33 63 72 105 201 66 201 -7 0 -59 -37 -116 -83 -180 -143
-354 -243 -481 -277 -58 -16 -75 -17 -135 -6 -147 26 -349 175 -635 465 -94
96 -129 154 -141 237 -8 53 10 78 21 32 19 -77 143 -210 358 -387 182 -149
319 -243 374 -255 54 -11 139 -2 211 24 56 19 205 101 242 132 38 32 118 155
137 208 23 68 -10 199 -68 260 -15 17 -31 46 -35 65 -9 42 -35 87 -69 119 -14
14 -26 32 -26 42 0 10 -4 20 -9 23 -4 3 -11 27 -13 53 -11 98 -44 160 -140
258 -67 68 -86 83 -78 61 6 -16 9 -30 7 -32 -2 -2 -28 14 -58 36 -29 22 -57
40 -61 40 -4 0 10 -24 32 -52 73 -97 98 -202 64 -274 -27 -57 -119 -120 -160
-110 -33 9 -30 22 7 30 42 8 109 76 109 109 0 37 -14 41 -55 13 -20 -14 -45
-28 -56 -31 -10 -4 -19 -9 -19 -13 0 -9 -52 -11 -107 -5 -34 3 -43 8 -43 23 0
12 10 21 30 25 38 8 48 27 65 127 12 65 12 84 2 91 -8 6 -7 7 6 3 11 -3 17 0
17 9 0 21 65 83 92 88 51 10 67 5 158 -50z m520 47 c0 -5 -4 -10 -9 -10 -6 0
-13 5 -16 10 -3 6 1 10 9 10 9 0 16 -4 16 -10z m211 -10 c44 -12 149 -118 149
-150 0 -11 9 -37 19 -58 24 -47 68 -193 77 -256 4 -31 9 -43 15 -35 4 7 11 10
15 6 4 -3 1 -13 -5 -21 -8 -10 -12 -39 -9 -80 3 -70 -6 -79 -17 -16 -5 30 -11
40 -26 40 -21 0 -26 16 -7 22 10 4 9 14 0 46 -7 23 -17 42 -22 42 -6 0 -9 6
-8 13 2 7 -9 12 -29 13 -37 0 -48 8 -38 24 5 7 11 8 19 1 6 -6 18 -6 25 -2 11
7 11 13 -2 31 -8 12 -16 17 -19 10 -2 -7 -11 -3 -23 11 l-20 22 24 -8 c16 -5
21 -4 17 4 -11 16 -63 13 -70 -4 -3 -8 -10 -15 -17 -15 -6 0 -9 6 -6 13 3 7
-1 21 -9 32 -8 10 -14 23 -14 27 0 11 53 -2 61 -15 4 -5 12 -8 19 -5 12 4 -61
100 -109 142 -21 19 -21 19 -21 -8 0 -22 -4 -27 -22 -24 -12 2 -24 9 -26 17
-3 10 0 12 12 8 22 -9 31 15 15 45 -6 13 -33 45 -60 71 -51 51 -50 54 21 60
25 2 47 4 50 5 3 1 21 -3 41 -8z m1109 0 c0 -5 -7 -10 -15 -10 -8 0 -15 5 -15
10 0 6 7 10 15 10 8 0 15 -4 15 -10z m1975 0 c3 -5 1 -10 -4 -10 -6 0 -11 5
-11 10 0 6 2 10 4 10 3 0 8 -4 11 -10z m156 -20 c6 -126 36 -198 116 -278 35
-35 63 -66 63 -69 0 -12 -89 11 -120 32 -62 39 -129 198 -130 305 0 33 2 35
35 35 30 0 35 -3 36 -25z m-3461 0 c0 -5 -4 -10 -10 -10 -5 0 -10 5 -10 10 0
6 5 10 10 10 6 0 10 -4 10 -10z m1817 -12 c-3 -8 -6 -5 -6 6 -1 11 2 17 5 13
3 -3 4 -12 1 -19z m3133 14 c0 -4 -10 -13 -22 -21 -23 -14 -23 -14 -4 8 20 22
26 25 26 13z m-5830 -42 c0 -5 -7 -10 -15 -10 -8 0 -15 5 -15 10 0 6 7 10 15
10 8 0 15 -4 15 -10z m5770 0 c0 -5 -4 -10 -10 -10 -5 0 -10 5 -10 10 0 6 5
10 10 10 6 0 10 -4 10 -10z m-4365 -79 c42 -118 112 -257 141 -280 15 -12 39
-21 55 -21 24 0 31 -7 49 -46 11 -26 20 -48 20 -50 0 -2 -37 -4 -82 -4 -87 0
-118 14 -118 52 0 43 -44 187 -79 264 -21 44 -55 100 -76 122 l-37 42 50 -1
50 -2 27 -76z m-430 49 c3 -5 1 -10 -4 -10 -6 0 -11 5 -11 10 0 6 2 10 4 10 3
0 8 -4 11 -10z m-188 -35 c86 -43 211 -187 269 -308 11 -23 23 -36 31 -33 7 3
13 1 13 -3 0 -5 -5 -11 -11 -13 -9 -3 -9 -9 0 -25 39 -74 53 -287 26 -413 -23
-109 -32 -112 -32 -13 -1 169 -35 266 -133 379 -33 38 -84 106 -114 151 -30
44 -72 100 -93 124 -34 39 -35 41 -8 22 42 -30 218 -203 238 -233 13 -19 12
-12 -3 29 -12 29 -34 72 -50 96 -34 50 -168 189 -225 233 l-40 31 41 1 c24 0
61 -10 91 -25z m188 -5 c3 -5 -3 -10 -14 -10 -12 0 -21 5 -21 10 0 6 6 10 14
10 8 0 18 -4 21 -10z m1903 -42 l1 -43 -12 35 c-11 30 -8 47 9 50 0 0 1 -19 2
-42z m-254 6 c3 -8 2 -12 -4 -9 -6 3 -10 10 -10 16 0 14 7 11 14 -7z m-2696
-31 c-2 -11 -18 -20 -43 -25 -77 -16 -162 -49 -183 -71 -32 -33 -52 -136 -51
-262 0 -124 -6 -111 113 -254 39 -48 56 -76 52 -87 -5 -13 -3 -14 6 -6 10 8
36 -16 106 -95 52 -57 92 -106 90 -108 -5 -5 -188 146 -308 254 -91 81 -170
167 -170 183 0 5 -6 8 -14 8 -11 0 -13 10 -9 43 12 107 96 342 131 365 24 16
221 70 260 71 17 1 23 -4 20 -16z m2146 2 c38 -25 230 -84 241 -74 14 13 25
11 19 -4 -3 -9 17 -27 53 -50 78 -49 118 -87 198 -185 52 -64 71 -81 86 -77
14 5 17 2 13 -9 -3 -9 -10 -16 -15 -16 -5 0 -2 -14 7 -32 l16 -31 -28 22
c-130 100 -171 96 -125 -12 28 -66 110 -187 127 -187 8 0 14 -4 14 -10 0 -17
-11 -12 -55 25 -23 19 -45 31 -49 28 -3 -4 -6 4 -6 16 0 19 -4 21 -22 15 -13
-4 -27 -12 -31 -18 -6 -7 -7 -4 -3 7 3 11 0 17 -9 17 -8 0 -15 5 -15 10 0 6
12 10 28 10 l27 1 -42 40 c-40 37 -43 44 -43 92 -1 74 -23 173 -46 198 -28 31
-155 99 -184 99 -50 0 -63 -37 -35 -104 8 -20 20 -36 26 -36 6 0 8 -8 5 -18
-4 -10 -2 -39 3 -65 5 -26 6 -49 2 -51 -3 -2 -20 -1 -37 1 l-32 5 -37 146
c-39 155 -54 182 -102 182 -14 0 -39 -10 -56 -22 -48 -33 -167 -150 -167 -163
0 -6 15 -43 34 -81 28 -56 32 -70 19 -72 -24 -6 -62 37 -99 110 l-34 67 28 15
c15 8 60 50 99 94 48 53 90 89 125 106 60 30 71 31 102 11z m-1114 -15 c0 -5
-4 -10 -10 -10 -5 0 -10 5 -10 10 0 6 5 10 10 10 6 0 10 -4 10 -10z m3220 -10
c0 -15 -29 -19 -40 -5 -8 10 -8 14 2 18 16 5 38 -2 38 -13z m2029 -375 c-8
-72 -26 -135 -37 -135 -4 0 -5 25 -3 56 1 31 -1 59 -5 63 -5 3 -7 78 -3 166 4
128 9 168 24 200 l19 40 7 -160 c4 -88 3 -191 -2 -230z m-5079 355 c0 -5 -5
-10 -11 -10 -5 0 -7 5 -4 10 3 6 8 10 11 10 2 0 4 -4 4 -10z m240 -10 c0 -5
-5 -10 -11 -10 -5 0 -7 5 -4 10 3 6 8 10 11 10 2 0 4 -4 4 -10z m-1600 -30 c0
-5 -4 -10 -10 -10 -5 0 -10 5 -10 10 0 6 5 10 10 10 6 0 10 -4 10 -10z m150
-8 c0 -13 -12 -22 -40 -31 -44 -13 -62 -31 -30 -31 12 0 18 -4 15 -11 -4 -6
-22 -9 -40 -7 -19 1 -37 0 -40 -4 -3 -3 -15 -4 -25 -1 -19 5 -19 6 -2 35 19
33 41 48 87 59 55 13 75 10 75 -9z m3185 -52 c3 -5 1 -10 -4 -10 -6 0 -11 5
-11 10 0 6 2 10 4 10 3 0 8 -4 11 -10z m-2665 -45 c11 -13 8 -15 -14 -15 -25
0 -33 10 -19 23 10 11 19 8 33 -8z m4715 -10 c82 -11 175 -37 175 -48 0 -1
-83 -1 -185 1 -114 2 -191 -1 -202 -7 -15 -9 -14 -10 11 -11 51 0 150 -31 235
-72 97 -48 175 -119 191 -176 31 -111 58 -427 67 -779 3 -156 10 -283 15 -283
4 0 8 -4 8 -10 0 -5 -7 -10 -15 -10 -18 0 -20 -21 -3 -38 27 -27 148 3 148 37
0 19 38 41 70 41 15 0 20 -7 19 -27 0 -25 -1 -26 -9 -8 -8 19 -9 19 -9 -3 -2
-52 -13 -60 -176 -122 -54 -20 -101 -46 -140 -80 -163 -135 -159 -133 -228
-128 -104 9 -448 150 -423 175 1 2 27 -7 57 -21 67 -29 211 -66 258 -66 53 0
96 32 144 107 75 117 75 108 1 107 -65 -2 -76 4 -49 26 10 9 15 9 15 1 0 -6 7
-11 15 -11 8 0 15 4 15 9 0 5 15 8 34 6 43 -4 52 2 71 48 25 59 18 170 -30
517 -59 416 -70 453 -158 504 -61 35 -188 54 -317 47 -8 -1 22 -14 66 -30 85
-29 137 -60 153 -90 10 -17 27 -132 35 -231 10 -125 18 -482 12 -534 -9 -70
-32 -89 -109 -89 -112 0 -176 71 -210 233 -26 122 -59 377 -82 625 -3 39 -12
80 -20 92 -8 12 -55 48 -103 80 l-89 59 21 59 21 60 55 3 c30 1 129 11 220 22
269 33 298 34 425 15z m-5215 -14 c0 -5 22 -24 50 -42 55 -38 59 -45 31 -54
-13 -4 -34 5 -66 29 -25 20 -54 40 -63 46 -15 8 -15 11 -2 20 19 12 50 13 50
1z m1254 -34 c11 -31 2 -45 -18 -28 -11 9 -15 9 -19 -1 -2 -7 -8 -10 -12 -6
-5 5 -1 16 7 25 9 10 13 24 10 32 -3 8 1 12 9 9 8 -3 18 -17 23 -31z m2636 23
c0 -5 -4 -10 -10 -10 -5 0 -10 5 -10 10 0 6 5 10 10 10 6 0 10 -4 10 -10z
m-4080 -9 c0 -6 -4 -13 -10 -16 -5 -3 -10 1 -10 9 0 9 5 16 10 16 6 0 10 -4
10 -9z m1495 -72 c-10 -22 -25 -39 -34 -39 -14 1 -14 2 2 14 9 7 17 21 17 30
0 10 5 27 12 39 20 37 22 -1 3 -44z m4150 41 c3 -5 2 -10 -4 -10 -5 0 -13 5
-16 10 -3 6 -2 10 4 10 5 0 13 -4 16 -10z m204 -39 c-7 -23 -18 -41 -26 -41
-17 0 -17 16 1 23 7 3 16 20 20 38 3 18 9 30 12 27 3 -4 0 -24 -7 -47z m-139
29 c0 -5 -7 -10 -16 -10 -8 0 -12 5 -9 10 3 6 10 10 16 10 5 0 9 -4 9 -10z
m365 -76 c3 -38 10 -114 16 -168 6 -54 11 -160 11 -235 1 -118 -1 -142 -19
-181 -11 -25 -28 -54 -38 -65 l-17 -20 7 20 c41 126 44 241 9 470 -9 60 -13
127 -10 150 8 46 26 108 32 103 2 -2 6 -35 9 -74z m-5970 56 c3 -5 -1 -10 -9
-10 -9 0 -16 5 -16 10 0 6 4 10 9 10 6 0 13 -4 16 -10z m632 -29 c36 -26 93
-89 93 -103 0 -3 -53 -8 -118 -11 -76 -4 -143 -14 -187 -28 l-68 -21 -20 21
c-20 20 -20 20 -1 27 10 3 40 14 65 24 50 21 152 40 212 40 45 0 42 9 -15 51
-32 22 -36 29 -21 29 11 0 38 -13 60 -29z m4953 -2 c57 -15 166 -64 175 -79 8
-14 26 -123 25 -160 0 -13 7 -213 15 -444 l14 -420 -25 -43 c-13 -23 -34 -47
-44 -53 -17 -9 -22 -7 -31 17 -12 31 -28 414 -29 673 0 96 -5 203 -10 238 -10
75 -62 192 -84 192 -9 0 -16 8 -16 19 0 10 -16 29 -35 42 -37 26 -46 44 -17
35 9 -2 37 -10 62 -17z m90 7 c0 -3 -4 -8 -10 -11 -5 -3 -10 -1 -10 4 0 6 5
11 10 11 6 0 10 -2 10 -4z m190 0 c0 -3 -4 -8 -10 -11 -5 -3 -10 -1 -10 4 0 6
5 11 10 11 6 0 10 -2 10 -4z m-3597 -35 c-4 -15 -8 -19 -13 -10 -5 6 -3 18 3
24 16 17 17 14 10 -14z m-2273 9 c0 -5 -4 -10 -10 -10 -5 0 -10 5 -10 10 0 6
5 10 10 10 6 0 10 -4 10 -10z m5426 0 c8 0 14 -5 14 -11 0 -12 -40 -2 -55 14
-7 7 -4 8 8 3 10 -3 25 -6 33 -6z m-4346 -10 c0 -5 -7 -7 -15 -4 -8 4 -15 8
-15 10 0 2 7 4 15 4 8 0 15 -4 15 -10z m4750 -10 c-24 -15 -37 -11 -16 5 11 8
22 12 25 9 3 -3 -1 -9 -9 -14z m-3320 -11 c0 -6 -4 -7 -10 -4 -5 3 -10 11 -10
16 0 6 5 7 10 4 6 -3 10 -11 10 -16z m3025 -9 c3 -5 2 -10 -4 -10 -5 0 -13 5
-16 10 -3 6 -2 10 4 10 5 0 13 -4 16 -10z m-3737 -48 c111 -6 95 -17 -43 -28
-69 -5 -84 -4 -98 10 -9 10 -17 26 -17 36 0 17 2 17 30 3 17 -8 73 -17 128
-21z m452 19 c0 -5 -11 -11 -25 -13 -24 -5 -32 2 -18 15 9 10 43 8 43 -2z
m-2319 -32 c26 -13 16 -28 -16 -21 -25 4 -31 13 -18 25 8 9 11 9 34 -4z m199
-10 c0 -5 -7 -9 -15 -9 -15 0 -20 12 -9 23 8 8 24 -1 24 -14z m4350 6 c0 -8
-7 -15 -15 -15 -16 0 -20 12 -8 23 11 12 23 8 23 -8z m1820 -65 c0 -5 -4 -10
-10 -10 -5 0 -10 5 -10 10 0 6 5 10 10 10 6 0 10 -4 10 -10z m-4153 -10 c66 0
43 -20 -25 -21 -56 -1 -56 -1 -17 -9 22 -4 87 -16 145 -25 137 -22 242 -56
310 -99 30 -20 52 -36 49 -36 -4 0 -40 6 -80 14 -104 20 -169 27 -169 18 0 -5
22 -14 49 -21 49 -12 202 -104 306 -182 29 -22 104 -60 166 -85 63 -25 128
-51 144 -59 48 -21 124 -45 145 -45 39 0 76 46 90 110 l13 61 18 -30 c21 -34
52 -57 91 -66 21 -6 30 -16 38 -45 6 -21 17 -58 25 -81 l15 -42 -89 6 c-217
16 -453 93 -618 203 -38 25 -111 66 -163 91 -52 26 -114 59 -138 75 -61 42
-103 57 -213 79 -109 21 -145 34 -154 58 -9 24 23 41 77 41 67 0 60 17 -9 25
-32 4 -66 9 -75 11 -28 8 -51 -50 -45 -113 5 -47 4 -53 -14 -53 -12 0 -24 13
-34 37 -15 35 -15 44 1 108 9 38 19 74 22 79 2 4 25 6 50 2 25 -3 65 -6 89 -6z
m-1860 -11 c8 -8 -5 -35 -43 -97 -30 -47 -57 -88 -61 -91 -14 -13 10 68 39
131 31 67 44 78 65 57z m1628 -37 c-4 -20 -9 -40 -11 -43 -7 -12 -91 -20 -210
-20 l-121 1 -6 -83 c-8 -102 -29 -184 -67 -262 -16 -33 -27 -61 -26 -63 2 -2
57 2 122 7 66 6 131 11 147 11 27 0 27 0 14 -32 l-13 -33 -180 -10 c-98 -6
-180 -11 -181 -10 -1 0 16 35 36 78 38 76 61 162 61 221 0 25 -5 18 -24 -35
-41 -118 -175 -289 -225 -289 -28 0 -32 -6 80 131 81 100 121 164 181 294 60
130 56 128 198 119 106 -6 120 -5 120 9 0 9 -10 21 -21 28 -33 17 -9 24 66 21
l67 -4 -7 -36z m1702 38 l36 0 -6 -52 c-13 -107 -124 -288 -196 -317 -44 -19
-83 -10 -100 21 -15 26 -14 28 31 70 57 54 146 189 161 246 8 29 16 41 25 37
7 -3 30 -5 49 -5z m2663 -20 c0 -5 -4 -10 -10 -10 -5 0 -10 5 -10 10 0 6 5 10
10 10 6 0 10 -4 10 -10z m-6753 -6 c-3 -3 -12 -4 -19 -1 -8 3 -5 6 6 6 11 1
17 -2 13 -5z m6891 -179 c5 -84 -62 -652 -83 -702 -26 -61 -60 -35 -49 38 4
26 3 39 -5 40 -6 1 -17 2 -23 3 -17 2 -37 -24 -38 -47 0 -10 -13 -44 -30 -77
-41 -82 -40 -100 8 -100 l37 0 -24 -19 c-24 -18 -26 -18 -79 0 -57 20 -176 26
-186 10 -3 -5 -17 -8 -31 -8 -14 0 -22 4 -18 10 4 7 0 8 -12 3 -15 -5 -16 -4
-6 8 6 8 24 17 39 21 15 3 37 16 49 27 13 12 41 22 70 25 57 6 80 24 103 78
28 64 33 95 15 95 -8 0 -15 5 -15 10 0 6 7 10 14 10 8 0 32 32 52 70 20 39 38
69 40 67 2 -1 -2 -33 -8 -69 -6 -37 -8 -74 -5 -82 8 -20 37 -21 37 -1 0 7 6
18 14 22 8 5 17 22 20 38 32 186 50 400 43 507 -5 81 -4 93 16 124 l22 34 14
-33 c8 -17 16 -63 19 -102z m-5620 99 c31 -22 28 -44 -24 -145 -60 -117 -82
-131 -172 -113 -27 6 -30 9 -21 26 9 17 19 19 71 16 71 -4 82 9 44 47 -14 14
-26 27 -26 29 0 2 25 20 55 40 57 37 73 64 33 52 -36 -10 -130 -26 -157 -26
-39 0 -13 18 80 56 46 18 86 34 89 34 3 0 16 -7 28 -16z m959 -46 c-3 -8 -6
-5 -6 6 -1 11 2 17 5 13 3 -3 4 -12 1 -19z m4363 1 c0 -6 -4 -7 -10 -4 -5 3
-10 11 -10 16 0 6 5 7 10 4 6 -3 10 -11 10 -16z m-2742 -49 c-31 -23 -82 -45
-73 -30 7 11 75 49 89 50 5 0 -3 -9 -16 -20z m-3430 -325 l62 -50 0 -151 c0
-84 5 -198 10 -255 24 -237 89 -519 157 -679 32 -74 128 -224 200 -314 13 -16
22 -30 20 -32 -2 -3 -46 19 -98 48 -108 61 -210 155 -255 235 -16 29 -32 53
-35 53 -16 0 87 -323 123 -386 34 -61 116 -158 191 -226 l52 -48 -35 0 c-143
0 -404 99 -520 197 -43 36 -37 15 17 -58 98 -135 263 -267 412 -330 82 -35 64
-36 -58 -4 -156 42 -307 128 -395 225 -73 81 -164 403 -190 675 -7 72 -4 67
29 -48 32 -112 80 -207 145 -288 51 -64 156 -159 175 -158 6 0 0 8 -13 19 -13
10 -22 20 -22 22 4 11 -15 38 -27 38 -9 0 -13 6 -10 15 4 8 -7 44 -23 79 -37
81 -82 237 -110 376 -30 156 -29 152 -45 146 -8 -3 -15 -1 -15 5 0 5 7 12 16
16 10 4 14 13 10 27 -14 57 -47 416 -65 706 -12 179 -23 354 -26 388 l-4 64
132 -129 c73 -70 161 -150 195 -178z m864 240 c0 -5 -5 -11 -11 -13 -6 -2 -11
4 -11 13 0 9 5 15 11 13 6 -2 11 -8 11 -13z m5528 -25 c0 -5 -4 -10 -10 -10
-5 0 -10 5 -10 10 0 6 5 10 10 10 6 0 10 -4 10 -10z m-4202 -59 c174 -40 317
-80 310 -86 -2 -2 -38 5 -81 15 -74 18 -294 50 -340 50 -34 0 -8 -16 68 -40
212 -70 335 -130 420 -206 l40 -35 -52 6 c-29 3 -123 8 -210 10 l-158 5 130
-53 c162 -67 189 -81 350 -178 195 -118 311 -152 400 -115 46 20 55 42 66 165
14 146 20 166 50 166 33 0 35 -28 10 -150 -25 -119 -27 -178 -5 -199 28 -28
61 -19 84 23 17 34 39 165 40 240 l0 64 68 -6 c37 -4 82 -7 100 -7 30 0 32 -2
32 -38 0 -21 7 -62 16 -91 10 -33 12 -57 6 -64 -5 -7 -35 -58 -65 -115 -45
-82 -52 -102 -36 -97 25 8 25 -11 -1 -25 -14 -7 -20 -7 -20 0 0 5 -15 10 -32
9 -18 0 -55 4 -83 10 -27 5 -104 10 -170 11 -255 2 -368 44 -547 205 -85 77
-163 119 -339 184 -209 76 -219 83 -157 113 l32 15 -47 18 c-72 27 -59 39 36
32 45 -4 102 -10 127 -13 l45 -5 -55 35 c-45 29 -194 96 -215 96 -2 0 -15 -21
-29 -47 -21 -44 -23 -53 -13 -105 13 -72 1 -122 -31 -126 -17 -3 -22 2 -22 20
0 13 -9 42 -19 65 l-19 41 44 109 c24 59 44 109 44 111 0 3 42 20 53 21 4 1
83 -17 175 -38z m1032 12 c0 -5 -5 -15 -10 -23 -8 -12 -10 -11 -10 8 0 12 5
22 10 22 6 0 10 -3 10 -7z m-2632 -21 c2 -7 -3 -12 -12 -12 -9 0 -16 7 -16 16
0 17 22 14 28 -4z m2541 -100 c-10 -16 -16 -17 -35 -8 l-24 11 28 6 c42 10 43
10 31 -9z m512 3 c-1 -15 -24 -12 -29 3 -3 9 2 13 12 10 10 -1 17 -7 17 -13z
m309 -5 c18 -9 16 -14 -21 -77 -21 -37 -39 -75 -39 -85 0 -25 40 -58 70 -58
50 0 100 -82 100 -165 0 -25 5 -45 10 -45 13 0 44 31 82 80 20 26 30 32 38 24
9 -9 6 -23 -10 -55 -39 -78 -100 -127 -142 -114 -18 6 -19 12 -14 59 6 44 3
57 -16 86 -33 50 -160 112 -239 118 -59 4 -60 4 -98 -37 -42 -46 -48 -44 -62
18 -14 63 -5 78 56 84 75 8 107 28 170 107 57 71 76 81 115 60z m2120 -76
c-13 -39 -57 -93 -101 -125 -26 -19 -30 -19 -45 -5 -10 10 -11 16 -3 16 8 0
10 11 6 33 -7 42 -3 46 56 76 26 13 58 38 70 55 21 30 22 30 25 8 2 -12 -2
-38 -8 -58z m-5990 46 c0 -5 -2 -10 -4 -10 -3 0 -8 5 -11 10 -3 6 -1 10 4 10
6 0 11 -4 11 -10z m3952 -14 c16 -12 14 -17 -18 -65 -50 -74 -92 -85 -65 -18
7 18 13 37 15 42 5 23 28 55 39 55 7 0 20 -6 29 -14z m-4417 -26 c3 -5 1 -10
-4 -10 -6 0 -11 5 -11 10 0 6 2 10 4 10 3 0 8 -4 11 -10z m1935 -50 c0 -5 -4
-10 -10 -10 -5 0 -10 5 -10 10 0 6 5 10 10 10 6 0 10 -4 10 -10z m30 -4 c0 -3
-4 -8 -10 -11 -5 -3 -10 -1 -10 4 0 6 5 11 10 11 6 0 10 -2 10 -4z m2100 -6
c0 -5 -11 -10 -25 -10 -14 0 -25 5 -25 10 0 6 11 10 25 10 14 0 25 -4 25 -10z
m-2056 -35 c3 -8 1 -15 -4 -15 -6 0 -10 7 -10 15 0 8 2 15 4 15 2 0 6 -7 10
-15z m196 -5 c16 -30 5 -54 -34 -73 -28 -13 -36 -24 -47 -65 -12 -48 -14 -50
-52 -56 -22 -4 -53 -16 -70 -28 l-30 -21 5 47 c3 27 15 60 25 75 19 25 70 65
96 74 7 2 9 7 6 11 -10 11 -92 -24 -123 -52 -63 -59 -81 -149 -50 -251 13 -46
17 -51 37 -45 20 6 21 5 7 -11 -13 -15 -12 -19 5 -31 10 -8 14 -14 8 -14 -6 0
-23 14 -37 31 -22 26 -26 28 -26 11 0 -11 46 -71 105 -136 99 -110 135 -160
135 -187 0 -7 -10 8 -23 32 -15 28 -49 63 -93 97 -214 165 -251 207 -261 305
-9 90 17 157 88 228 49 49 63 58 75 49 14 -12 10 -35 -5 -25 -14 8 -74 -135
-79 -187 -6 -67 23 -166 44 -146 2 3 -5 27 -17 53 -41 93 -3 215 84 269 46 28
151 64 194 65 13 1 27 -8 33 -19z m1200 -49 c0 -16 6 -32 13 -35 6 -3 -1 -4
-17 -3 -31 2 -38 -6 -71 -83 -14 -33 -15 -34 -10 -5 8 43 62 155 74 155 6 0
11 -13 11 -29z m-2600 -17 c0 -17 -22 -14 -28 4 -2 7 3 12 12 12 9 0 16 -7 16
-16z m4350 1 c0 -8 -4 -15 -10 -15 -5 0 -10 7 -10 15 0 8 5 15 10 15 6 0 10
-7 10 -15z m1262 -77 c-20 -46 -68 -108 -83 -108 -5 0 -9 26 -9 58 l1 57 52
35 c45 31 52 33 55 18 2 -9 -5 -37 -16 -60z m-4062 52 c0 -5 -4 -10 -10 -10
-5 0 -10 5 -10 10 0 6 5 10 10 10 6 0 10 -4 10 -10z m4360 0 c0 -5 -7 -10 -15
-10 -8 0 -15 5 -15 10 0 6 7 10 15 10 8 0 15 -4 15 -10z m-4339 -39 c-8 -5
-11 -16 -8 -25 4 -10 1 -16 -7 -16 -8 0 -13 6 -12 13 3 20 16 37 29 37 8 0 7
-3 -2 -9z m-135 -16 c-6 -16 14 -20 63 -16 13 1 27 -3 31 -9 4 -6 43 -20 86
-31 103 -26 237 -70 231 -76 -3 -2 -36 5 -74 15 -132 39 -349 77 -332 58 3 -3
37 -17 76 -31 87 -30 277 -111 312 -132 39 -25 111 -95 125 -123 7 -14 11 -41
9 -62 l-5 -36 -41 28 c-48 32 -91 46 -162 54 -42 4 -47 3 -31 -7 78 -48 192
-128 250 -174 93 -76 150 -107 182 -99 17 5 26 2 30 -8 7 -19 137 -49 217 -50
56 -1 61 1 92 36 39 46 79 169 80 245 0 44 3 53 18 53 24 0 22 -36 -8 -145
-29 -104 -31 -147 -9 -169 49 -50 102 8 150 163 20 64 37 122 40 129 4 13 105
15 156 3 l26 -6 -78 -145 -79 -145 -84 -12 c-92 -13 -182 -43 -213 -71 -21
-19 -148 -29 -168 -13 -6 4 -29 14 -51 21 -22 7 -73 28 -114 47 -80 36 -117
42 -108 18 4 -8 2 -17 -4 -20 -5 -4 -12 1 -16 11 -4 10 0 20 11 26 15 8 -3 22
-100 81 -65 40 -124 71 -131 69 -7 -2 -13 2 -13 7 0 6 -17 18 -37 26 -21 9
-65 33 -98 54 -33 21 -81 50 -107 65 -54 30 -66 55 -42 91 16 25 34 33 34 16
0 -5 15 -6 34 -1 19 4 50 6 70 5 20 -2 36 0 36 5 0 5 2 14 5 22 5 12 -70 68
-91 68 -5 0 -3 -4 5 -9 16 -11 7 -47 -15 -55 -13 -5 -15 -1 -10 19 10 41 -9
63 -77 84 l-62 19 -14 -46 c-11 -38 -11 -58 -2 -103 6 -30 11 -69 11 -87 l0
-31 -51 32 -51 31 7 51 c12 94 49 240 64 257 20 21 35 23 27 3z m2824 -6 c0
-11 -3 -11 -24 -3 -23 9 -20 23 4 17 11 -3 20 -9 20 -14z m-4363 5 c-3 -3 -12
-4 -19 -1 -8 3 -5 6 6 6 11 1 17 -2 13 -5z m-177 -55 c0 -18 -5 -29 -11 -27
-6 2 -10 7 -10 11 1 4 1 19 1 33 0 14 4 23 10 19 6 -3 10 -20 10 -36z m4356
-16 c-3 -7 -10 -13 -16 -13 -11 0 -14 53 -3 64 9 9 25 -34 19 -51z m-4239 25
c-3 -8 -6 -5 -6 6 -1 11 2 17 5 13 3 -3 4 -12 1 -19z m4359 -5 c-10 -10 -19 5
-10 18 6 11 8 11 12 0 2 -7 1 -15 -2 -18z m54 3 c0 -3 -4 -8 -10 -11 -5 -3
-10 -1 -10 4 0 6 5 11 10 11 6 0 10 -2 10 -4z m-310 -36 c0 -11 -7 -20 -15
-20 -15 0 -21 21 -8 33 12 13 23 7 23 -13z m-4925 -10 c3 -5 -1 -10 -10 -10
-9 0 -13 5 -10 10 3 6 8 10 10 10 2 0 7 -4 10 -10z m4176 -13 c-12 -12 -45 -1
-37 12 3 5 15 7 27 4 13 -4 17 -9 10 -16z m179 13 c0 -5 -7 -10 -16 -10 -8 0
-12 5 -9 10 3 6 10 10 16 10 5 0 9 -4 9 -10z m-3374 -58 c-12 -12 -18 8 -10
35 l8 28 4 -28 c2 -16 1 -31 -2 -35z m4356 27 c-2 -17 -8 -27 -13 -22 -9 9 -1
53 10 53 4 0 6 -14 3 -31z m-990 -39 c44 -13 103 -75 113 -120 9 -42 0 -49
-19 -12 -19 37 -79 90 -112 98 -14 4 -52 4 -85 1 -32 -3 -59 -2 -59 2 0 9 85
39 110 40 8 1 31 -4 52 -9z m2598 -5 c13 -15 5 -55 -12 -55 -5 0 -7 7 -4 16 3
8 1 24 -4 35 -12 22 2 26 20 4z m-2840 -25 c0 -5 -2 -10 -4 -10 -3 0 -8 5 -11
10 -3 6 -1 10 4 10 6 0 11 -4 11 -10z m-3940 -35 c0 -16 -27 -32 -37 -21 -7 7
16 36 28 36 5 0 9 -7 9 -15z m2490 11 c0 -3 -4 -8 -10 -11 -5 -3 -10 -1 -10 4
0 6 5 11 10 11 6 0 10 -2 10 -4z m1851 -29 c-16 -16 -25 -1 -10 16 8 8 16 11
18 5 2 -5 -2 -15 -8 -21z m-2737 8 c12 -17 81 -31 71 -15 -4 6 3 10 14 10 30
0 26 -5 -16 -26 -31 -14 -66 -18 -186 -20 -104 -1 -147 2 -144 10 2 6 15 11
28 11 13 0 29 3 34 6 6 4 50 6 98 5 80 -1 88 0 84 16 -6 22 2 23 17 3z m166
-15 c0 -5 -7 -10 -15 -10 -8 0 -15 5 -15 10 0 6 7 10 15 10 8 0 15 -4 15 -10z
m4355 -1 c4 -6 5 -12 2 -15 -7 -7 -37 7 -37 17 0 13 27 11 35 -2z m-5392 -6
c-7 -2 -19 -2 -25 0 -7 3 -2 5 12 5 14 0 19 -2 13 -5z m143 -20 c-10 -10 -19
5 -10 18 6 11 8 11 12 0 2 -7 1 -15 -2 -18z m444 10 c0 -15 -37 -26 -74 -21
-34 4 -34 20 0 24 14 2 28 4 30 6 9 9 44 2 44 -9z m3763 10 c-7 -2 -19 -2 -25
0 -7 3 -2 5 12 5 14 0 19 -2 13 -5z m157 -2 c0 -12 -20 -25 -27 -18 -7 7 6 27
18 27 5 0 9 -4 9 -9z m437 -8 c2 -6 -6 -13 -19 -17 -34 -9 -88 -7 -88 3 0 10
57 28 84 26 11 -1 21 -6 23 -12z m505 -5 c-6 -6 -15 -8 -19 -4 -4 4 -1 11 7
16 8 5 17 7 19 4 3 -2 -1 -10 -7 -16z m-4342 8 c0 -2 -7 -6 -15 -10 -8 -3 -15
-1 -15 4 0 6 7 10 15 10 8 0 15 -2 15 -4z m450 -11 c0 -8 -4 -15 -10 -15 -5 0
-10 7 -10 15 0 8 5 15 10 15 6 0 10 -7 10 -15z m-1090 -5 c0 -5 -2 -10 -4 -10
-3 0 -8 5 -11 10 -3 6 -1 10 4 10 6 0 11 -4 11 -10z m4300 6 c0 -3 -4 -8 -10
-11 -5 -3 -10 -1 -10 4 0 6 5 11 10 11 6 0 10 -2 10 -4z m60 0 c0 -3 -4 -8
-10 -11 -5 -3 -10 -1 -10 4 0 6 5 11 10 11 6 0 10 -2 10 -4z m590 -6 c0 -5 -7
-10 -16 -10 -8 0 -12 5 -9 10 3 6 10 10 16 10 5 0 9 -4 9 -10z m610 0 c0 -5
-2 -10 -4 -10 -3 0 -8 5 -11 10 -3 6 -1 10 4 10 6 0 11 -4 11 -10z m-2547 -29
c34 -59 24 -106 -52 -232 -49 -81 -65 -115 -55 -117 12 -3 10 -10 -6 -38 -18
-27 -19 -34 -7 -34 9 0 18 6 20 13 4 7 6 8 6 1 2 -19 -27 -36 -49 -29 -11 3
-20 13 -20 21 0 10 -14 14 -55 14 -30 0 -55 4 -55 9 0 5 12 30 27 57 23 41 24
47 8 35 -11 -8 -6 -1 10 15 17 16 68 93 114 172 45 78 86 142 90 142 4 0 14
-13 24 -29z m-233 11 c0 -5 17 -16 38 -26 35 -18 36 -19 15 -29 -29 -13 -53
-3 -53 23 0 23 -10 26 -28 8 -9 -9 -12 -8 -12 4 0 15 12 25 33 27 4 1 7 -3 7
-7z m2790 -58 c-10 -44 -25 -63 -97 -124 -97 -82 -105 -112 -78 -294 24 -160
20 -270 -16 -414 -17 -69 -28 -135 -25 -148 6 -22 3 -24 -29 -24 -34 0 -75 27
-75 50 0 6 -7 10 -16 8 -10 -2 -19 3 -22 10 -3 9 3 13 18 10 18 -2 25 6 42 52
72 195 75 256 28 445 -16 66 -30 143 -30 172 0 45 5 58 32 88 17 20 57 54 88
75 32 22 77 59 101 83 53 55 90 60 79 11z m-5057 -114 c-4 -25 -6 -54 -5 -65
2 -21 42 -116 53 -125 3 -3 6 -13 6 -22 0 -9 14 -46 32 -83 l33 -66 -24 -19
c-13 -11 -26 -19 -29 -20 -12 0 -99 136 -114 179 -24 69 -19 168 12 252 26 70
27 72 35 44 5 -17 5 -50 1 -75z m4787 65 c0 -10 -81 -45 -119 -51 -57 -9 -62
-24 -7 -24 l45 0 -16 -28 -17 -29 -69 24 c-38 12 -77 23 -88 23 -36 0 -19 15
39 34 136 44 232 66 232 51z m340 -173 c7 -68 13 -189 13 -270 l2 -147 -37
-77 c-46 -97 -114 -198 -133 -198 -18 0 -18 10 0 85 24 99 30 267 12 365 -40
219 -34 265 47 343 31 30 56 61 57 69 0 7 6 0 14 -17 7 -16 18 -85 25 -153z
m-6835 138 c3 -5 2 -10 -4 -10 -5 0 -13 5 -16 10 -3 6 -2 10 4 10 5 0 13 -4
16 -10z m2795 -20 c0 -20 -5 -25 -20 -22 -23 6 -26 12 -10 22 20 13 30 12 30
0z m90 -6 c0 -9 -32 -33 -44 -34 -5 0 -1 9 9 20 18 20 35 26 35 14z m-2865
-34 c3 -5 1 -10 -4 -10 -6 0 -11 5 -11 10 0 6 2 10 4 10 3 0 8 -4 11 -10z
m2429 -20 c60 -18 136 -47 136 -53 0 -2 -33 5 -72 15 -104 27 -126 19 -43 -15
89 -36 173 -91 187 -123 10 -20 8 -29 -9 -52 -18 -25 -27 -27 -104 -32 l-84
-5 64 -34 c60 -31 255 -101 281 -101 10 0 76 -25 165 -61 17 -7 35 -13 40 -14
17 -1 65 -42 65 -55 0 -7 8 -19 18 -26 16 -13 16 -13 -3 -15 -11 -1 -31 -3
-45 -4 -14 -2 -30 1 -35 5 -25 20 -129 53 -133 41 -6 -18 -22 -13 -22 8 0 22
-26 34 -232 101 -238 79 -256 99 -262 296 -2 65 -7 127 -11 138 -7 16 -5 17
15 11 12 -4 50 -15 84 -25z m786 10 c0 -5 -4 -10 -10 -10 -5 0 -10 5 -10 10 0
6 5 10 10 10 6 0 10 -4 10 -10z m557 4 c-3 -3 -12 -4 -19 -1 -8 3 -5 6 6 6 11
1 17 -2 13 -5z m-1777 -66 c49 -61 90 -147 90 -189 0 -11 5 -17 10 -14 6 3 10
23 11 43 1 63 16 6 25 -93 6 -77 9 -85 15 -55 5 19 11 87 15 150 5 63 9 108
10 100 14 -86 15 -89 32 -84 16 5 16 5 1 -8 -12 -10 -20 -44 -28 -118 -6 -57
-13 -105 -15 -108 -2 -2 -26 13 -54 32 l-49 36 -5 73 c-6 86 -52 195 -99 229
-28 21 -41 68 -19 68 5 0 32 -28 60 -62z m4050 38 c30 -8 111 -31 180 -52
l125 -38 18 -85 c9 -47 20 -97 24 -111 l6 -24 -34 23 c-106 71 -381 178 -472
184 -23 2 -40 7 -37 13 3 5 8 8 12 7 4 -2 38 -7 75 -13 37 -6 136 -31 218 -54
83 -24 154 -42 158 -39 13 8 -15 34 -83 78 -73 47 -146 77 -234 95 -41 8 -55
15 -45 21 18 11 23 11 89 -5z m-4490 -6 c-8 -5 -19 -10 -25 -10 -5 0 -3 5 5
10 8 5 20 10 25 10 6 0 3 -5 -5 -10z m4360 0 c-8 -5 -19 -10 -25 -10 -5 0 -3
5 5 10 8 5 20 10 25 10 6 0 3 -5 -5 -10z m-2750 -20 c6 -11 8 -20 6 -20 -3 0
-10 9 -16 20 -6 11 -8 20 -6 20 3 0 10 -9 16 -20z m1590 10 c0 -5 -6 -10 -14
-10 -8 0 -18 5 -21 10 -3 6 3 10 14 10 12 0 21 -4 21 -10z m-1558 -42 c-8 -8
-9 -4 -5 13 4 13 8 18 11 10 2 -7 -1 -18 -6 -23z m2294 -41 c88 -35 207 -64
319 -79 l100 -13 -110 -5 c-105 -5 -113 -10 -35 -25 35 -7 441 -142 448 -150
7 -6 -59 4 -203 32 -346 66 -461 110 -570 217 -36 35 -65 72 -65 82 0 15 4 14
28 -9 15 -15 55 -37 88 -50z m-779 -19 c-50 -79 -115 -131 -215 -173 -191 -80
-386 -97 -627 -55 -162 28 -280 36 -299 21 -11 -9 -15 -9 -18 0 -5 15 -118 3
-118 -12 0 -6 -4 -7 -10 -4 -14 8 -85 -30 -130 -71 -46 -41 -102 -123 -94
-136 8 -12 -37 -47 -60 -48 -28 0 -14 39 46 128 31 45 47 77 40 80 -19 6 -14
24 6 20 10 -2 39 15 66 39 79 70 137 87 296 87 74 1 192 -3 263 -8 118 -8 129
-8 148 10 21 19 21 19 18 -1 -4 -19 2 -20 161 -23 92 -2 184 2 207 8 23 5 85
31 138 56 73 34 95 50 91 61 -5 11 -2 13 10 9 10 -4 32 10 62 39 26 24 48 40
50 35 2 -5 -12 -33 -31 -62z m-207 42 c-20 -13 -33 -13 -25 0 3 6 14 10 23 10
15 0 15 -2 2 -10z m-2619 -27 c-8 -15 -10 -15 -11 -2 0 17 10 32 18 25 2 -3
-1 -13 -7 -23z m1899 23 c0 -3 -4 -8 -10 -11 -5 -3 -10 -1 -10 4 0 6 5 11 10
11 6 0 10 -2 10 -4z m-580 -16 c0 -5 -4 -10 -10 -10 -5 0 -10 5 -10 10 0 6 5
10 10 10 6 0 10 -4 10 -10z m-436 -30 c-5 -22 -3 -30 7 -30 8 0 1 -7 -15 -15
-35 -18 -36 -18 -36 0 0 8 7 15 15 15 11 0 13 8 9 30 -5 23 -3 30 10 30 12 0
14 -7 10 -30z m1390 -5 c-5 -26 -2 -36 9 -41 9 -3 13 -12 10 -20 -3 -8 -9 -11
-14 -8 -5 3 -7 10 -4 15 4 5 -6 9 -20 9 l-26 0 22 40 c13 22 24 40 26 40 2 0
1 -16 -3 -35z m-1491 -13 c-22 -5 -27 6 -12 24 12 15 14 14 20 -3 4 -12 1 -19
-8 -21z m-765 -11 c3 -8 -1 -12 -9 -9 -7 2 -15 10 -17 17 -3 8 1 12 9 9 7 -2
15 -10 17 -17z m3321 -18 c8 -18 9 -29 2 -31 -52 -17 -116 -116 -107 -165 6
-32 121 -277 130 -277 2 0 23 35 46 78 49 90 72 117 122 143 45 23 57 24 86 3
l23 -16 -48 -51 c-65 -69 -168 -200 -196 -248 -12 -21 -25 -39 -28 -39 -3 0
-13 16 -22 36 -11 22 -22 32 -29 28 -8 -5 -9 -2 -5 10 4 11 -17 68 -59 156
-36 76 -67 153 -70 172 -5 26 3 50 35 113 58 113 96 141 120 88z m1031 17 c0
-5 -2 -10 -4 -10 -3 0 -8 5 -11 10 -3 6 -1 10 4 10 6 0 11 -4 11 -10z m-4280
-40 c0 -5 -2 -10 -4 -10 -3 0 -8 5 -11 10 -3 6 -1 10 4 10 6 0 11 -4 11 -10z
m2799 -67 c-11 -38 -27 -97 -36 -133 -13 -56 -23 -72 -68 -115 -48 -47 -178
-124 -235 -140 -21 -6 -17 1 25 45 28 28 74 67 103 86 28 18 52 36 52 38 0 2
-26 -7 -57 -20 -32 -13 -71 -24 -88 -24 -16 0 -45 -9 -63 -20 -31 -19 -33 -19
-30 -3 2 11 41 38 97 68 104 56 189 128 263 222 27 35 51 63 53 63 2 0 -5 -30
-16 -67z m-2017 16 c5 -3 3 -9 -6 -12 -19 -8 -30 8 -21 31 6 14 8 15 13 2 3
-8 9 -18 14 -21z m-1906 -36 c-11 -11 -19 6 -11 24 8 17 8 17 12 0 3 -10 2
-21 -1 -24z m4359 7 c-5 -8 -11 -8 -17 -2 -6 6 -7 16 -3 22 5 8 11 8 17 2 6
-6 7 -16 3 -22z m-3506 -103 l25 -17 -33 -127 c-18 -71 -35 -130 -37 -132 -8
-8 -113 102 -124 130 -10 23 -8 41 13 106 14 43 29 95 32 116 l6 38 47 -49
c26 -27 58 -56 71 -65z m190 -35 l52 -62 -22 -78 c-20 -72 -78 -242 -85 -251
-2 -2 -29 18 -61 44 -32 27 -61 51 -65 55 -7 5 53 254 64 265 3 4 32 -8 64
-26 l59 -32 -52 54 c-29 30 -53 59 -53 64 0 15 33 46 41 38 4 -5 30 -36 58
-71z m3927 39 c130 -30 324 -62 486 -82 102 -13 126 -25 109 -57 -10 -19 -20
-22 -75 -22 -100 0 -240 28 -396 80 -124 41 -336 130 -274 115 11 -3 79 -18
150 -34z m-3434 4 c19 -17 29 -39 33 -72 4 -27 11 -61 16 -77 5 -16 7 -31 5
-33 -2 -2 -29 8 -61 22 l-58 25 7 38 c4 20 10 56 13 80 3 23 8 42 12 42 3 0
18 -11 33 -25z m2464 -155 c-7 -67 -11 -80 -47 -127 -62 -80 -69 -83 -69 -34
0 32 8 51 36 88 30 40 35 52 30 83 -3 20 -1 53 5 75 l11 39 20 -24 c18 -22 19
-34 14 -100z m-3972 85 c-4 -8 -8 -15 -10 -15 -2 0 -4 7 -4 15 0 8 4 15 10 15
5 0 7 -7 4 -15z m4353 -7 c-3 -8 -6 -5 -6 6 -1 11 2 17 5 13 3 -3 4 -12 1 -19z
m-174 -207 c-22 -55 -70 -122 -238 -331 -86 -107 -164 -210 -173 -228 -20 -40
-8 -65 33 -70 30 -4 32 -2 211 196 51 56 130 150 176 209 56 73 84 102 86 90
4 -22 -10 -42 -188 -267 -211 -267 -339 -437 -357 -476 -24 -49 -10 -83 46
-111 56 -28 36 -39 -45 -24 -69 13 -125 45 -181 103 -124 129 -124 198 0 363
45 61 329 395 437 515 32 36 80 91 107 123 l48 58 26 -58 c24 -54 25 -61 12
-92z m647 119 c38 -19 39 -21 35 -69 -1 -27 -8 -56 -14 -63 -32 -39 -140 -188
-160 -220 -29 -48 -11 -49 26 -3 15 19 31 35 36 35 17 0 -238 -290 -263 -299
-15 -5 -44 -30 -65 -55 l-38 -47 -22 21 c-48 45 -49 60 -10 125 20 33 38 71
41 85 3 14 9 35 14 46 12 30 360 464 371 464 6 0 27 -9 49 -20z m-2815 -30 c3
-5 -1 -10 -9 -10 -9 0 -16 5 -16 10 0 6 4 10 9 10 6 0 13 -4 16 -10z m3185
-11 c25 -7 105 -13 183 -13 87 -1 136 -5 133 -11 -2 -5 -12 -34 -22 -62 -16
-45 -22 -52 -39 -47 -16 5 -18 4 -7 -7 22 -23 13 -33 -11 -11 -13 12 -32 22
-43 22 -14 0 -16 2 -6 9 10 6 6 10 -15 15 -35 9 -205 89 -235 111 -25 19 -30
19 62 -6z m-3939 -76 c52 -57 65 -96 51 -147 -7 -22 -22 -77 -33 -121 -12 -44
-23 -82 -25 -84 -5 -5 -174 108 -174 117 0 13 49 181 72 249 l21 62 27 -19
c15 -11 42 -36 61 -57z m719 17 c0 -5 -5 -10 -11 -10 -5 0 -7 5 -4 10 3 6 8
10 11 10 2 0 4 -4 4 -10z m110 -4 c0 -2 3 -11 6 -20 4 -11 1 -16 -10 -16 -9 0
-16 -4 -16 -10 0 -5 7 -10 15 -10 8 0 15 -4 15 -10 0 -5 -2 -10 -4 -10 -2 0
-11 -3 -20 -6 -9 -4 -16 -1 -16 6 0 7 -8 19 -17 27 -10 8 -12 12 -5 8 15 -8
16 17 0 33 -9 9 -5 12 20 12 18 0 32 -2 32 -4z m-1580 -10 c0 -3 -4 -8 -10
-11 -5 -3 -10 -1 -10 4 0 6 5 11 10 11 6 0 10 -2 10 -4z m3299 -91 c-11 -63
-16 -72 -98 -169 l-86 -103 -3 45 c-5 70 22 127 95 198 34 35 63 66 63 70 0 8
33 34 38 29 2 -1 -2 -33 -9 -70z m-3819 58 c0 -5 -5 -15 -10 -23 -8 -12 -10
-11 -10 8 0 12 5 22 10 22 6 0 10 -3 10 -7z m2600 -27 c102 -14 257 -32 345
-41 190 -18 195 -20 195 -49 l0 -22 -182 3 -183 3 68 -19 c133 -37 197 -75
197 -116 0 -30 -12 -33 -75 -23 -240 39 -710 66 -777 45 -27 -9 -27 -8 -18 23
5 18 17 41 26 51 10 11 15 21 13 24 -8 8 -67 -33 -83 -57 -37 -56 -94 -353
-89 -457 3 -57 1 -72 -9 -69 -22 8 -57 81 -64 135 -7 62 40 432 61 472 13 25
77 77 139 114 40 23 175 18 436 -17z m-1796 -59 c13 -18 32 -52 42 -76 17 -42
18 -43 54 -37 32 5 40 2 66 -27 24 -26 24 -28 3 -9 -31 27 -99 31 -99 6 0 -9
6 -62 14 -118 13 -92 28 -326 21 -326 -2 0 -13 44 -25 98 -20 92 -87 282 -99
282 -3 0 -7 -53 -8 -118 -2 -72 -13 -177 -30 -272 -15 -85 -27 -168 -27 -185
-1 -16 -6 -34 -12 -40 -6 -5 -21 -36 -34 -68 -13 -33 -28 -61 -35 -63 -16 -7
-157 77 -152 90 26 67 89 280 132 441 l52 200 33 -58 c17 -31 34 -57 37 -57 8
0 -5 359 -13 389 l-7 25 31 -23 c18 -12 43 -37 56 -54z m261 63 c-3 -5 -13
-10 -21 -10 -8 0 -14 5 -14 10 0 6 9 10 21 10 11 0 17 -4 14 -10z m35 -15 c7
-9 8 -15 2 -15 -5 0 -12 7 -16 15 -3 8 -4 15 -2 15 2 0 9 -7 16 -15z m472
-113 c28 -16 29 -19 23 -67 -11 -89 -37 -222 -46 -236 -7 -11 -25 -6 -93 28
l-85 42 35 133 c19 73 37 139 39 145 4 13 65 -8 127 -45z m3596 -4 c31 -18 60
-36 63 -41 4 -5 18 -7 32 -3 15 3 29 1 35 -7 9 -10 4 -12 -23 -9 -38 5 -42 -1
-48 -58 -5 -52 -79 -187 -155 -281 -38 -46 -89 -113 -114 -149 -26 -36 -71
-87 -102 -113 -31 -27 -56 -55 -56 -63 0 -23 40 -55 128 -102 115 -61 127 -56
269 91 98 102 124 148 123 220 -2 200 0 231 20 269 24 47 25 55 3 61 -14 4
-13 5 4 6 17 1 24 9 29 36 3 19 8 35 10 35 2 0 53 -21 62 -25 1 -1 -5 -19 -14
-41 -10 -21 -21 -82 -25 -134 -4 -52 -15 -112 -23 -132 -23 -55 -20 -56 24
-13 65 63 94 112 92 151 -2 30 4 42 49 85 34 33 64 52 91 58 21 5 57 21 80 36
l40 26 -7 -23 c-21 -68 -74 -125 -145 -157 l-45 -21 48 3 c26 1 47 1 47 -1 0
-11 -394 -447 -521 -578 -38 -38 -48 -55 -43 -70 7 -18 6 -18 -12 -3 -10 9
-41 20 -69 24 -63 8 -126 37 -240 108 -68 42 -166 114 -137 100 7 -3 107 114
186 217 163 213 249 362 269 471 7 32 13 59 14 59 2 0 29 -14 61 -32z m-3387
-120 c47 -26 53 -42 39 -102 -5 -25 -9 -49 -8 -53 4 -17 -25 -133 -33 -133 -8
0 -90 30 -97 36 -3 2 30 189 43 252 7 27 8 27 56 0z m-663 -40 c132 -91 256
-229 337 -373 l28 -50 -49 48 c-27 26 -53 47 -57 47 -4 0 1 -17 11 -37 31 -62
54 -140 50 -175 -3 -28 -7 -33 -32 -36 -15 -2 -55 6 -88 19 -49 18 -69 33
-114 86 -30 35 -54 59 -54 53 0 -25 103 -211 140 -253 50 -56 193 -155 301
-207 61 -30 95 -40 131 -40 47 0 48 1 72 48 48 96 207 238 342 306 76 39 100
46 147 46 31 0 57 -4 57 -8 0 -4 -26 -20 -57 -36 -164 -80 -349 -234 -439
-367 -36 -51 -53 -69 -70 -69 -13 0 -66 15 -119 34 -52 19 -95 31 -95 28 0 -4
-4 -2 -8 3 -4 6 -52 39 -107 74 -55 35 -112 75 -127 89 -33 31 -35 25 -8 -31
l21 -42 -60 63 c-45 48 -65 79 -86 134 -33 90 -113 364 -121 418 l-6 40 103
-35 c56 -19 107 -35 112 -35 5 0 -20 33 -55 73 -110 124 -197 237 -183 237 4
0 41 -24 83 -52z m-1696 -121 c51 -38 180 -100 260 -126 37 -13 70 -27 74 -32
13 -21 167 -139 175 -133 5 3 9 -1 9 -9 0 -28 589 -435 610 -422 5 3 10 1 10
-4 0 -17 78 -64 94 -58 9 4 13 1 10 -6 -8 -22 419 -264 810 -460 201 -100 261
-126 267 -115 7 10 9 10 9 -3 0 -28 73 -51 84 -26 3 6 4 3 3 -7 -2 -15 16 -27
88 -57 50 -21 102 -43 117 -48 26 -9 26 -10 12 -51 -9 -25 -12 -56 -8 -76 3
-19 3 -34 0 -34 -18 0 -340 137 -496 210 -186 88 -460 230 -646 336 -67 38
-119 61 -128 58 -9 -3 -24 -3 -33 1 -17 7 -17 8 1 14 17 7 15 10 -15 29 -21
13 -45 19 -60 16 -17 -3 -19 -2 -7 3 14 6 -6 22 -90 73 -174 106 -507 329
-657 443 -189 142 -310 245 -432 365 -92 91 -223 244 -223 260 0 3 28 -21 63
-54 34 -33 79 -72 99 -87z m1585 97 c-3 -3 -12 -4 -19 -1 -8 3 -5 6 6 6 11 1
17 -2 13 -5z m3718 -4 c3 -5 1 -10 -4 -10 -6 0 -11 5 -11 10 0 6 2 10 4 10 3
0 8 -4 11 -10z m-4845 -4 c0 -3 -4 -8 -10 -11 -5 -3 -10 -1 -10 4 0 6 5 11 10
11 6 0 10 -2 10 -4z m4360 0 c0 -2 -7 -7 -16 -10 -8 -3 -12 -2 -9 4 6 10 25
14 25 6z m-1421 -120 c106 -20 196 -35 198 -32 3 2 -15 15 -39 29 -24 13 -52
30 -63 36 l-20 12 20 -5 c11 -2 53 -14 93 -26 l74 -21 -4 -145 c-1 -79 -2
-144 -1 -144 1 0 15 24 32 53 l31 52 -6 -55 c-3 -30 -10 -70 -16 -88 -8 -28
-14 -33 -32 -28 -11 4 -40 9 -63 12 -39 6 -42 9 -52 49 -14 57 -52 87 -151
120 -44 15 -80 31 -80 35 0 28 212 38 286 15 18 -6 18 -6 -1 10 -60 51 -215
88 -370 89 -125 1 -172 -12 -181 -51 -10 -36 15 -56 146 -113 106 -46 183
-100 167 -116 -3 -3 -91 -1 -194 5 -103 6 -236 14 -296 17 -130 7 -157 22
-157 85 0 23 -5 39 -12 39 -7 0 -5 7 5 18 9 9 19 42 24 72 l8 55 5 -55 c5 -53
6 -55 33 -52 26 3 27 1 17 -18 -6 -11 -17 -20 -25 -20 -20 0 -20 -63 -1 -83
19 -18 85 -25 321 -32 154 -5 186 -4 170 6 -46 29 -307 127 -325 122 -11 -3
-20 0 -20 6 0 6 7 11 15 11 11 0 12 5 5 25 -13 35 13 98 54 131 29 24 36 25
121 21 50 -3 177 -21 284 -41z m1491 -75 c0 -5 12 -23 26 -40 l26 -31 -41 -45
c-43 -47 -49 -60 -28 -68 8 -4 7 -6 -3 -7 -8 -1 -45 -36 -82 -78 -37 -42 -153
-164 -257 -269 -185 -189 -190 -193 -230 -193 -56 0 -143 37 -243 103 -186
121 -257 218 -260 350 0 35 8 56 45 114 25 39 50 74 55 77 5 3 3 -25 -5 -62
-27 -124 6 -222 105 -314 131 -121 212 -155 308 -129 81 22 203 144 443 443
118 148 141 172 141 149z m-2009 -83 c-23 -6 -37 -6 -44 1 -8 8 2 11 34 10
l44 -1 -34 -10z m-1311 -22 c0 -8 3 -21 6 -30 4 -11 1 -16 -10 -16 -11 0 -16
9 -16 30 0 17 5 30 10 30 6 0 10 -6 10 -14z m3670 -32 c0 -25 -25 -14 -26 11
-2 21 1 24 12 14 8 -6 14 -18 14 -25z m-4356 -5 c-9 -15 -20 -10 -20 10 0 15
3 17 13 9 7 -6 10 -14 7 -19z m1136 -29 c0 -5 -4 -10 -10 -10 -5 0 -10 5 -10
10 0 6 5 10 10 10 6 0 10 -4 10 -10z m-1156 -45 c-4 -8 -11 -15 -16 -15 -6 0
-5 6 2 15 7 8 14 15 16 15 2 0 1 -7 -2 -15z m4353 -6 c-8 -11 -12 -30 -9 -41
3 -14 1 -19 -6 -14 -21 13 -5 76 19 76 6 0 4 -9 -4 -21z m-3779 -1 c-3 -7 -15
-14 -29 -16 -23 -2 -23 -2 -5 13 24 18 39 20 34 3z m4350 -4 c-8 -9 -24 -14
-34 -11 -17 3 -16 5 6 15 36 16 47 14 28 -4z m-772 -134 c-128 -132 -538 -595
-547 -617 -5 -13 -15 -23 -23 -23 -9 0 -22 -13 -31 -30 -14 -26 -14 -33 1 -70
16 -40 34 -53 34 -25 0 8 7 15 14 15 15 0 172 120 285 219 82 72 328 353 437
500 2 2 17 -7 34 -19 l31 -22 -23 -27 c-13 -14 -42 -51 -65 -81 -22 -30 -67
-84 -100 -120 -33 -36 -102 -114 -154 -175 -132 -153 -294 -307 -356 -338 -28
-15 -54 -31 -58 -36 -9 -15 87 -39 207 -51 120 -13 182 -2 266 46 53 31 235
202 333 314 41 46 106 118 144 159 39 42 82 91 98 109 17 22 34 32 47 30 16
-2 -39 -66 -269 -310 -160 -169 -318 -330 -351 -358 -130 -107 -213 -127 -415
-95 -136 20 -184 34 -194 54 -5 9 -11 72 -14 141 -7 144 -17 188 -59 247 -29
40 -66 68 -55 41 3 -7 13 -31 22 -53 17 -39 17 -40 -1 -24 -227 190 -405 359
-380 359 3 0 31 -16 61 -35 31 -20 112 -65 182 -101 109 -57 145 -79 229 -139
10 -7 27 3 64 40 27 27 50 57 50 67 0 10 6 18 13 18 6 0 131 119 277 265 l265
265 32 -37 32 -38 -63 -65z m-4169 98 c-3 -8 -6 -5 -6 6 -1 11 2 17 5 13 3 -3
4 -12 1 -19z m38 -18 c3 -5 1 -10 -4 -10 -6 0 -11 5 -11 10 0 6 2 10 4 10 3 0
8 -4 11 -10z m4355 0 c0 -5 -4 -10 -10 -10 -5 0 -10 5 -10 10 0 6 5 10 10 10
6 0 10 -4 10 -10z m-4200 -29 c-5 -11 -7 -34 -4 -53 l5 -33 -16 27 c-14 26
-14 30 1 53 19 29 29 33 14 6z m459 -142 c-5 -9 -6 -19 -2 -22 3 -3 -7 -9 -22
-13 -41 -10 -50 9 -15 34 16 13 30 30 31 40 0 14 2 14 8 -3 5 -11 5 -27 0 -36z
m4352 -12 c-8 -19 -18 -27 -35 -27 -37 0 -40 17 -6 35 19 10 30 23 31 38 0 22
1 22 10 2 7 -14 7 -30 0 -48z m-2151 28 c0 -9 7 -29 15 -46 15 -28 14 -32 -5
-59 -12 -17 -24 -46 -27 -66 -8 -49 -23 -30 -30 39 -4 41 -1 69 11 102 17 44
36 60 36 30z m970 0 c-14 -17 -30 -20 -30 -6 0 5 8 12 18 14 9 3 19 5 21 6 2
0 -2 -6 -9 -14z m-3281 -28 c-2 -2 -16 -7 -31 -11 -22 -5 -28 -3 -28 9 0 12 6
15 20 10 13 -4 20 -2 20 6 0 10 3 10 12 1 6 -6 10 -13 7 -15z m-95 -51 c-3 -9
3 -20 15 -28 12 -7 21 -19 21 -26 0 -7 -13 2 -29 20 -28 31 -31 48 -11 48 5 0
7 -6 4 -14z m-144 -16 c0 -5 -5 -10 -11 -10 -5 0 -7 5 -4 10 3 6 8 10 11 10 2
0 4 -4 4 -10z m70 -19 c0 -11 -66 -51 -85 -51 -8 0 -18 8 -24 18 -8 15 -3 19
37 28 61 15 72 16 72 5z m3091 -7 c12 -14 11 -16 -5 -13 -11 2 -21 10 -24 17
-5 17 13 15 29 -4z m1264 7 c3 -5 -15 -20 -39 -32 -37 -18 -48 -20 -61 -9 -23
19 -18 26 28 37 57 14 65 15 72 4z m-4297 -13 c-6 -18 -28 -21 -28 -4 0 9 7
16 16 16 9 0 14 -5 12 -12z m4352 4 c0 -13 -12 -22 -22 -16 -10 6 -1 24 13 24
5 0 9 -4 9 -8z m-3498 -44 c-7 -7 -12 -8 -12 -2 0 14 12 26 19 19 2 -3 -1 -11
-7 -17z m1322 -35 c-18 -45 -23 -76 -23 -138 0 -85 17 -155 19 -80 1 51 38
142 80 195 l33 41 22 -55 c46 -113 141 -219 370 -416 135 -116 231 -187 287
-213 26 -12 51 -32 57 -44 13 -28 71 -65 89 -58 8 3 28 -1 45 -9 18 -8 83 -21
145 -30 63 -8 115 -16 117 -18 2 -2 -3 -28 -11 -58 -8 -30 -19 -94 -24 -142
-8 -79 -30 -151 -50 -163 -4 -3 -11 14 -14 38 -10 62 -44 113 -138 203 -126
121 -480 406 -623 500 -105 70 -184 94 -248 76 -50 -14 -421 -257 -484 -318
-50 -47 -53 -53 -53 -100 0 -40 7 -63 36 -110 95 -160 560 -557 653 -558 16
-1 25 -6 23 -14 -3 -14 110 -70 218 -108 58 -20 61 -23 31 -23 -72 -2 -211 41
-329 100 -64 32 -120 59 -124 59 -5 0 -16 8 -27 18 -10 9 -68 53 -130 97 -98
70 -111 83 -109 107 2 21 -15 44 -88 120 -165 171 -256 320 -269 440 -6 60 -5
65 25 106 42 59 115 130 178 174 71 51 68 24 -9 -78 -22 -28 -39 -54 -39 -57
0 -13 119 84 159 129 53 60 101 210 101 314 0 56 8 69 58 101 67 42 74 38 46
-28z m366 -86 c-11 -17 -20 -47 -20 -66 l0 -35 -30 29 c-50 48 -61 133 -23
193 14 23 14 23 53 -32 l40 -56 -20 -33z m1867 111 c-3 -8 -6 -5 -6 6 -1 11 2
17 5 13 3 -3 4 -12 1 -19z m-2650 -46 c-14 -17 -16 -12 -10 23 5 25 7 27 13
10 4 -11 3 -26 -3 -33z m2459 32 c-3 -9 -6 -22 -6 -30 0 -8 -4 -14 -10 -14
-11 0 -14 43 -3 53 12 13 25 7 19 -9z m-4192 -9 c-4 -8 -11 -15 -16 -15 -6 0
-5 6 2 15 7 8 14 15 16 15 2 0 1 -7 -2 -15z m4356 0 c-7 -9 -15 -13 -17 -11
-7 7 7 26 19 26 6 0 6 -6 -2 -15z m-3320 -25 c0 -5 -7 -10 -15 -10 -8 0 -15 5
-15 10 0 6 7 10 15 10 8 0 15 -4 15 -10z m909 -72 c-29 -97 -27 -93 -49 -73
-28 26 -37 10 -16 -26 17 -29 17 -31 0 -50 -11 -12 -18 -34 -17 -57 1 -20 -1
-28 -4 -17 -6 23 -32 55 -45 55 -18 0 -88 53 -93 71 -9 26 -25 24 -25 -3 0
-25 30 -80 61 -114 18 -19 18 -22 3 -34 -13 -12 -22 -10 -61 10 -73 39 -78 53
-47 140 31 90 41 110 56 110 6 0 3 -9 -6 -19 -17 -18 -11 -18 76 6 51 14 111
33 133 43 22 10 43 19 47 19 3 1 -2 -27 -13 -61z m-783 5 c-10 -10 -19 5 -10
18 6 11 8 11 12 0 2 -7 1 -15 -2 -18z m1497 -136 c-10 -20 -14 -45 -10 -73 l4
-43 -32 27 c-62 51 -80 82 -80 138 0 29 6 58 14 68 13 16 19 13 67 -35 l53
-52 -16 -30z m1577 107 c0 -2 -7 -4 -15 -4 -8 0 -15 4 -15 10 0 5 7 7 15 4 8
-4 15 -8 15 -10z m-3090 -4 c0 -5 -4 -10 -10 -10 -5 0 -10 5 -10 10 0 6 5 10
10 10 6 0 10 -4 10 -10z m50 0 c0 -5 -7 -10 -16 -10 -8 0 -12 5 -9 10 3 6 10
10 16 10 5 0 9 -4 9 -10z m3020 -20 c0 -5 -5 -10 -11 -10 -5 0 -7 5 -4 10 3 6
8 10 11 10 2 0 4 -4 4 -10z m-2990 -24 c0 -3 -4 -8 -10 -11 -5 -3 -10 -1 -10
4 0 6 5 11 10 11 6 0 10 -2 10 -4z m-862 -41 c-3 -3 -9 2 -12 12 -6 14 -5 15
5 6 7 -7 10 -15 7 -18z m2405 -69 l48 -43 -11 -43 c-6 -24 -9 -59 -5 -77 8
-42 -1 -39 -69 25 -43 40 -46 47 -46 93 0 48 13 89 28 89 4 -1 29 -20 55 -44z
m-1158 -16 c3 -5 1 -10 -4 -10 -6 0 -11 5 -11 10 0 6 2 10 4 10 3 0 8 -4 11
-10z m-895 -40 c0 -5 -4 -10 -10 -10 -5 0 -10 5 -10 10 0 6 5 10 10 10 6 0 10
-4 10 -10z m610 -60 c0 -4 -7 -13 -15 -20 -13 -11 -15 -9 -13 13 1 16 7 23 15
20 7 -3 13 -9 13 -13z m1593 -15 c22 -19 44 -35 49 -35 4 0 8 -38 8 -85 l0
-86 -55 42 c-61 46 -75 65 -75 101 0 28 19 98 26 98 3 0 24 -16 47 -35z
m-1277 -2 c-7 -7 -26 7 -26 19 0 6 6 6 15 -2 9 -7 13 -15 11 -17z m-316 -32
c0 -6 -4 -13 -10 -16 -5 -3 -10 1 -10 9 0 9 5 16 10 16 6 0 10 -4 10 -9z m255
-12 c12 -19 -5 -23 -22 -6 -16 16 -16 17 -1 17 9 0 20 -5 23 -11z m-360 -18
c-3 -6 -11 -11 -17 -11 -6 0 -6 6 2 15 14 17 26 13 15 -4z m1170 5 c59 -25
177 -111 407 -295 342 -274 427 -367 428 -465 0 -35 -6 -45 -51 -87 -61 -56
-134 -83 -197 -73 -37 6 -41 9 -36 28 7 31 -25 69 -59 68 -30 0 -57 -18 -57
-38 0 -8 -4 -14 -8 -14 -14 0 -312 173 -432 250 -63 40 -146 98 -184 128 l-68
55 31 13 c61 25 67 106 11 127 -17 6 -30 14 -30 18 0 11 192 141 239 161 25
12 56 18 74 15 27 -4 28 -3 12 10 -48 34 -140 5 -284 -91 -154 -102 -182 -146
-141 -224 32 -59 147 -164 172 -157 13 5 16 2 12 -8 -6 -17 34 -50 171 -140
233 -152 404 -238 520 -262 l60 -12 -40 -20 c-82 -42 -116 -47 -195 -28 -99
24 -306 129 -426 217 -196 141 -415 352 -464 446 -40 76 -35 80 289 292 162
106 182 113 246 86z m-235 0 c0 -3 -4 -8 -10 -11 -5 -3 -10 -1 -10 4 0 6 5 11
10 11 6 0 10 -2 10 -4z m-810 -36 c0 -5 -4 -10 -10 -10 -5 0 -10 5 -10 10 0 6
5 10 10 10 6 0 10 -4 10 -10z m0 -191 c0 -6 -4 -7 -10 -4 -5 3 -10 11 -10 16
0 6 5 7 10 4 6 -3 10 -11 10 -16z m1970 -79 c0 -5 -7 -10 -15 -10 -8 0 -15 5
-15 10 0 6 7 10 15 10 8 0 15 -4 15 -10z m-1826 -16 c9 -24 7 -28 -9 -14 -17
14 -20 30 -6 30 5 0 12 -7 15 -16z m26 6 c0 -5 -2 -10 -4 -10 -3 0 -8 5 -11
10 -3 6 -1 10 4 10 6 0 11 -4 11 -10z m38 -96 c30 -9 28 -21 -5 -26 -16 -3
-37 -9 -47 -13 -13 -6 -17 -5 -12 3 3 6 2 13 -4 17 -32 20 14 33 68 19z m22
-44 c0 -5 -7 -10 -16 -10 -8 0 -12 5 -9 10 3 6 10 10 16 10 5 0 9 -4 9 -10z
m-50 -20 c0 -5 -7 -10 -15 -10 -8 0 -15 5 -15 10 0 6 7 10 15 10 8 0 15 -4 15
-10z m-5 -30 c-3 -5 -10 -10 -16 -10 -5 0 -9 5 -9 10 0 6 7 10 16 10 8 0 12
-4 9 -10z m399 -351 c-5 -8 2 -10 21 -6 24 4 41 -4 96 -47 38 -28 68 -54 68
-58 1 -10 -141 -11 -164 -2 -16 7 -85 91 -85 105 0 4 15 10 33 12 17 2 33 5
35 5 2 1 0 -3 -4 -9z m379 -231 c102 -59 100 -64 -23 -56 -53 4 -76 11 -124
41 -37 22 -54 38 -45 41 8 2 28 9 44 14 47 16 50 15 148 -40z"/>
<path d="M2219 9775 c-49 -18 -127 -67 -113 -72 17 -6 -7 -53 -25 -53 -12 0
-12 3 -3 12 24 24 11 31 -14 7 -95 -89 -154 -315 -140 -542 10 -166 69 -439
91 -420 4 5 6 1 3 -7 -3 -9 3 -54 13 -100 10 -47 30 -162 44 -256 28 -194 38
-227 89 -302 19 -30 41 -71 47 -92 13 -44 28 -54 63 -40 55 20 58 102 16 424
-17 127 -33 250 -36 273 -4 32 -18 58 -53 100 -59 71 -75 102 -90 171 -21 99
-10 314 28 552 6 36 13 81 15 100 20 142 46 202 46 105 0 -35 3 -43 15 -39 8
4 15 1 15 -5 0 -6 -7 -11 -15 -11 -13 0 -15 -45 -15 -342 0 -393 -10 -347 108
-477 l70 -77 11 -90 c32 -270 37 -595 11 -670 -15 -43 -61 -56 -204 -58 -64 0
-116 -4 -116 -7 0 -4 23 -17 52 -29 42 -18 65 -21 113 -18 60 5 145 39 145 58
0 6 6 10 14 10 8 0 24 8 36 18 22 18 22 20 11 123 -9 77 -9 129 -1 199 17 151
19 154 46 75 13 -37 48 -109 78 -159 30 -50 64 -111 76 -136 24 -54 22 -38
-19 134 -16 71 -35 133 -42 137 -6 4 -9 11 -5 17 3 5 -5 74 -18 153 -13 79
-27 173 -31 209 -12 107 -22 121 -108 159 -68 30 -77 37 -92 73 -24 62 -44
212 -50 396 -7 192 -10 212 -30 212 -22 0 -18 17 5 23 14 4 18 10 14 22 -4 10
-14 15 -25 12 -11 -3 -22 -1 -25 4 -3 5 8 9 24 9 l30 0 7 106 c9 129 5 135
-66 109z m41 -162 c0 -10 -5 -25 -10 -33 -7 -11 -10 -7 -10 18 0 17 5 32 10
32 6 0 10 -8 10 -17z m-5 -391 c-3 -3 -11 0 -18 7 -9 10 -8 11 6 5 10 -3 15
-9 12 -12z m-5 -123 c0 -14 -17 -10 -23 5 -4 10 -1 13 9 9 7 -3 14 -9 14 -14z
m-160 -429 c0 -5 -4 -10 -10 -10 -5 0 -10 5 -10 10 0 6 5 10 10 10 6 0 10 -4
10 -10z m115 1 c3 -6 -3 -15 -14 -21 -21 -11 -37 2 -26 20 8 13 32 13 40 1z
m365 -321 c0 -5 -2 -10 -4 -10 -3 0 -8 5 -11 10 -3 6 -1 10 4 10 6 0 11 -4 11
-10z"/>
<path d="M1515 8120 c3 -19 29 -84 58 -145 56 -115 285 -504 319 -542 30 -32
130 -47 289 -41 190 7 173 -7 353 286 49 78 92 161 97 183 9 37 6 47 -26 105
-20 35 -37 64 -38 64 -1 0 -1 -33 1 -72 2 -50 -1 -78 -10 -90 -19 -25 -222
-134 -292 -158 -73 -25 -181 -26 -256 -4 -47 14 -186 92 -178 99 2 2 36 -6 75
-18 40 -11 75 -19 77 -16 3 3 -3 26 -12 52 l-17 47 -80 1 c-80 1 -80 1 -40 13
l40 13 -35 14 c-134 50 -254 134 -314 219 l-17 25 6 -35z m1095 -215 c-7 -9
-15 -13 -18 -10 -3 2 1 11 8 20 7 9 15 13 18 10 3 -2 -1 -11 -8 -20z m-210
-255 c0 -5 -5 -10 -11 -10 -5 0 -7 5 -4 10 3 6 8 10 11 10 2 0 4 -4 4 -10z
m-200 -40 c-20 -13 -33 -13 -25 0 3 6 14 10 23 10 15 0 15 -2 2 -10z m-30 -90
c0 -5 -4 -10 -10 -10 -5 0 -10 5 -10 10 0 6 5 10 10 10 6 0 10 -4 10 -10z
m220 -40 c0 -5 -5 -10 -11 -10 -5 0 -7 5 -4 10 3 6 8 10 11 10 2 0 4 -4 4 -10z"/>
<path d="M2005 7900 c3 -5 8 -10 11 -10 2 0 4 5 4 10 0 6 -5 10 -11 10 -5 0
-7 -4 -4 -10z"/>
<path d="M584 7885 c-9 -35 0 -41 14 -10 7 14 8 27 2 30 -5 3 -12 -6 -16 -20z"/>
<path d="M5371 8157 c81 -60 108 -75 113 -61 4 11 -10 22 -49 40 -49 21 -77
30 -64 21z"/>
<path d="M5796 8053 c-3 -4 -6 -18 -6 -32 0 -20 12 -33 48 -57 182 -119 497
-417 570 -539 48 -80 56 -69 14 20 -36 74 -124 186 -234 296 -130 129 -377
326 -392 312z"/>
<path d="M4762 7520 c2 -7 -9 -27 -24 -44 -31 -34 -36 -48 -13 -40 9 4 15 0
15 -8 0 -15 123 -78 153 -78 20 0 30 32 22 70 -5 23 -21 37 -73 67 -84 48 -85
48 -80 33z m66 -90 c-7 -11 -16 -20 -20 -20 -13 0 -9 28 5 33 23 10 27 7 15
-13z"/>
<path d="M3010 6821 c-58 -18 -150 -81 -150 -102 0 -5 13 -3 30 6 16 8 83 35
147 60 l118 44 -60 0 c-33 0 -71 -4 -85 -8z"/>
<path d="M6582 6124 c-22 -15 -32 -74 -12 -74 6 0 10 -7 10 -15 0 -21 47 -30
75 -15 13 7 28 26 34 41 20 59 -52 102 -107 63z"/>
<path d="M5713 6756 c-112 -85 -218 -191 -255 -256 -41 -72 -52 -139 -51 -315
2 -243 39 -406 96 -420 14 -4 96 5 184 19 295 47 387 45 510 -15 80 -38 134
-100 225 -254 90 -153 114 -177 200 -209 87 -33 103 -33 94 -3 -4 12 -8 29 -9
37 -3 26 -57 88 -82 94 -14 4 -25 11 -25 17 0 6 5 7 12 3 19 -12 3 18 -60 114
-33 50 -71 118 -85 153 -17 42 -34 67 -51 76 -14 8 -26 21 -26 29 0 8 4 13 9
9 39 -23 -14 120 -61 168 -13 13 -35 39 -50 59 -16 21 -53 49 -85 65 -53 26
-67 28 -163 27 -114 -2 -222 -25 -316 -68 -50 -23 -53 -23 -41 -5 17 28 121
96 168 110 43 13 47 20 23 40 -22 18 -55 85 -71 144 -33 122 -25 372 13 433
24 38 -1 25 -103 -52z m97 -546 c0 -5 -4 -10 -10 -10 -5 0 -10 5 -10 10 0 6 5
10 10 10 6 0 10 -4 10 -10z m616 -446 c-3 -9 -6 -22 -6 -30 0 -8 -4 -14 -10
-14 -11 0 -14 43 -3 53 12 13 25 7 19 -9z m39 -124 c3 -5 -1 -10 -9 -10 -9 0
-16 5 -16 10 0 6 4 10 9 10 6 0 13 -4 16 -10z m-15 -30 c0 -5 -5 -10 -11 -10
-5 0 -7 5 -4 10 3 6 8 10 11 10 2 0 4 -4 4 -10z m105 -78 c-3 -3 -11 0 -18 7
-9 10 -8 11 6 5 10 -3 15 -9 12 -12z m-20 -112 c-3 -5 -11 -10 -16 -10 -6 0
-7 5 -4 10 3 6 11 10 16 10 6 0 7 -4 4 -10z"/>
<path d="M6740 5288 c0 -9 7 -19 16 -22 25 -10 27 -1 4 19 -17 15 -20 16 -20
3z"/>
<path d="M5724 5115 c61 -46 172 -68 423 -84 203 -13 253 -35 295 -131 26 -61
54 -238 73 -465 9 -104 20 -228 25 -275 14 -119 12 -218 -5 -265 -15 -41 -14
-48 10 -51 9 -1 15 6 16 19 0 12 3 16 6 10 9 -25 22 -12 40 40 23 65 23 253
-1 533 -25 304 -47 427 -90 512 -69 136 -176 167 -534 158 -121 -4 -222 -2
-242 4 -32 9 -33 8 -16 -5z m824 -511 c-9 -9 -21 -13 -27 -9 -16 10 -3 25 22
25 20 0 20 -1 5 -16z"/>
<path d="M5955 4863 c10 -39 31 -211 50 -398 9 -88 23 -202 31 -254 14 -91 12
-131 -7 -131 -19 0 -8 -20 20 -34 23 -12 32 -13 45 -3 28 21 38 132 26 297
-24 337 -57 475 -126 529 -36 29 -48 27 -39 -6z m150 -473 c-3 -5 -10 -10 -16
-10 -5 0 -9 5 -9 10 0 6 7 10 16 10 8 0 12 -4 9 -10z"/>
<path d="M6490 3815 c0 -1 -12 -29 -26 -61 l-26 -59 47 45 c65 62 70 75 34 76
-16 1 -29 0 -29 -1z"/>
<path d="M3150 3845 c0 -8 6 -15 14 -15 8 0 23 -3 33 -7 17 -6 17 -5 -1 15
-22 25 -46 29 -46 7z"/>
<path d="M2186 2470 c-4 -19 -20 -91 -36 -160 -31 -138 -73 -381 -66 -387 5
-5 103 247 117 301 6 26 7 83 2 161 -7 94 -10 112 -17 85z"/>
<path d="M4307 1384 c-3 -3 -3 -13 0 -22 4 -10 2 -13 -5 -8 -7 4 -12 3 -12 -2
0 -10 -87 -122 -133 -169 -17 -18 -26 -33 -21 -33 22 0 149 97 165 125 30 53
35 138 6 109z"/>
<path d="M4726 1028 c5 -7 43 -56 86 -109 43 -53 78 -99 78 -103 0 -3 -9 -6
-20 -6 -10 0 -31 -5 -46 -12 -24 -11 -26 -16 -22 -60 6 -54 0 -57 -47 -28 -18
11 -52 27 -76 36 -55 19 -192 54 -197 50 -6 -7 174 -144 283 -216 192 -126
271 -156 295 -110 16 29 40 25 121 -22 60 -35 82 -42 127 -43 45 0 57 4 73 24
10 13 19 35 19 50 0 40 -44 122 -86 162 -111 105 -388 301 -516 365 -74 37
-83 40 -72 22z"/>
</g>
</svg>
